<svg width="111" height="30" viewBox="0 0 111 30" fill="none" xmlns="http://www.w3.org/2000/svg">
<g clip-path="url(#clip0_792_871)">
<path d="M2.51705 23V5.54545H14.0739V8.58807H6.20739V12.7472H13.3068V15.7898H6.20739V23H2.51705ZM16.277 23V9.90909H19.7969V12.1932H19.9332C20.1719 11.3807 20.5724 10.767 21.1349 10.3523C21.6974 9.93182 22.3452 9.72159 23.0781 9.72159C23.2599 9.72159 23.456 9.73295 23.6662 9.75568C23.8764 9.77841 24.0611 9.80966 24.2202 9.84943V13.071C24.0497 13.0199 23.8139 12.9744 23.5128 12.9347C23.2116 12.8949 22.9361 12.875 22.6861 12.875C22.152 12.875 21.6747 12.9915 21.2543 13.2244C20.8395 13.4517 20.5099 13.7699 20.2656 14.179C20.027 14.5881 19.9077 15.0597 19.9077 15.5938V23H16.277ZM31.4538 23.2557C30.1072 23.2557 28.9482 22.983 27.9766 22.4375C27.0107 21.8864 26.2663 21.108 25.7436 20.1023C25.2209 19.0909 24.9595 17.8949 24.9595 16.5142C24.9595 15.1676 25.2209 13.9858 25.7436 12.9688C26.2663 11.9517 27.0021 11.1591 27.951 10.5909C28.9055 10.0227 30.0249 9.73864 31.3089 9.73864C32.1726 9.73864 32.9766 9.87784 33.7209 10.1562C34.4709 10.429 35.1243 10.8409 35.6811 11.392C36.2436 11.9432 36.6811 12.6364 36.9936 13.4716C37.3061 14.3011 37.4624 15.2727 37.4624 16.3864V17.3835H26.4084V15.1335H34.0447C34.0447 14.6108 33.9311 14.1477 33.7038 13.7443C33.4766 13.3409 33.1612 13.0256 32.7578 12.7983C32.3601 12.5653 31.897 12.4489 31.3686 12.4489C30.8175 12.4489 30.3288 12.5767 29.9027 12.8324C29.4822 13.0824 29.1527 13.4205 28.9141 13.8466C28.6754 14.267 28.5533 14.7358 28.5476 15.2528V17.392C28.5476 18.0398 28.6669 18.5994 28.9055 19.071C29.1499 19.5426 29.4936 19.9062 29.9368 20.1619C30.38 20.4176 30.9055 20.5455 31.5135 20.5455C31.9169 20.5455 32.2862 20.4886 32.6214 20.375C32.9567 20.2614 33.2436 20.0909 33.4822 19.8636C33.7209 19.6364 33.9027 19.358 34.0277 19.0284L37.3857 19.25C37.2152 20.0568 36.8658 20.7614 36.3374 21.3636C35.8146 21.9602 35.1385 22.4261 34.3089 22.7614C33.4851 23.0909 32.5334 23.2557 31.4538 23.2557ZM44.6555 23.2131C43.6612 23.2131 42.7607 22.9574 41.9538 22.446C41.1527 21.929 40.5163 21.1705 40.0447 20.1705C39.5788 19.1648 39.3459 17.9318 39.3459 16.4716C39.3459 14.9716 39.5874 13.7244 40.0703 12.7301C40.5533 11.7301 41.1953 10.983 41.9964 10.4886C42.8033 9.98864 43.6868 9.73864 44.647 9.73864C45.38 9.73864 45.9908 9.86364 46.4794 10.1136C46.9737 10.358 47.3714 10.6648 47.6726 11.0341C47.9794 11.3977 48.2124 11.7557 48.3714 12.108H48.4822V5.54545H52.1044V23H48.5249V20.9034H48.3714C48.201 21.267 47.9595 21.6278 47.647 21.9858C47.3402 22.3381 46.9396 22.6307 46.4453 22.8636C45.9567 23.0966 45.3601 23.2131 44.6555 23.2131ZM45.8061 20.3239C46.3913 20.3239 46.8857 20.1648 47.2891 19.8466C47.6982 19.5227 48.0107 19.071 48.2266 18.4915C48.4482 17.9119 48.5589 17.233 48.5589 16.4545C48.5589 15.6761 48.451 15 48.2351 14.4261C48.0192 13.8523 47.7067 13.4091 47.2976 13.0966C46.8885 12.7841 46.3913 12.6278 45.8061 12.6278C45.2095 12.6278 44.7067 12.7898 44.2976 13.1136C43.8885 13.4375 43.5788 13.8864 43.3686 14.4602C43.1584 15.0341 43.0533 15.6989 43.0533 16.4545C43.0533 17.2159 43.1584 17.8892 43.3686 18.4744C43.5845 19.054 43.8942 19.5085 44.2976 19.8381C44.7067 20.1619 45.2095 20.3239 45.8061 20.3239ZM59.9134 23.2131C58.919 23.2131 58.0185 22.9574 57.2116 22.446C56.4105 21.929 55.7741 21.1705 55.3026 20.1705C54.8366 19.1648 54.6037 17.9318 54.6037 16.4716C54.6037 14.9716 54.8452 13.7244 55.3281 12.7301C55.8111 11.7301 56.4531 10.983 57.2543 10.4886C58.0611 9.98864 58.9446 9.73864 59.9048 9.73864C60.6378 9.73864 61.2486 9.86364 61.7372 10.1136C62.2315 10.358 62.6293 10.6648 62.9304 11.0341C63.2372 11.3977 63.4702 11.7557 63.6293 12.108H63.7401V5.54545H67.3622V23H63.7827V20.9034H63.6293C63.4588 21.267 63.2173 21.6278 62.9048 21.9858C62.598 22.3381 62.1974 22.6307 61.7031 22.8636C61.2145 23.0966 60.6179 23.2131 59.9134 23.2131ZM61.0639 20.3239C61.6491 20.3239 62.1435 20.1648 62.5469 19.8466C62.956 19.5227 63.2685 19.071 63.4844 18.4915C63.706 17.9119 63.8168 17.233 63.8168 16.4545C63.8168 15.6761 63.7088 15 63.4929 14.4261C63.277 13.8523 62.9645 13.4091 62.5554 13.0966C62.1463 12.7841 61.6491 12.6278 61.0639 12.6278C60.4673 12.6278 59.9645 12.7898 59.5554 13.1136C59.1463 13.4375 58.8366 13.8864 58.6264 14.4602C58.4162 15.0341 58.3111 15.6989 58.3111 16.4545C58.3111 17.2159 58.4162 17.8892 58.6264 18.4744C58.8423 19.054 59.152 19.5085 59.5554 19.8381C59.9645 20.1619 60.4673 20.3239 61.0639 20.3239ZM70.3473 23V9.90909H73.978V23H70.3473ZM72.1712 8.22159C71.6314 8.22159 71.1683 8.04261 70.782 7.68466C70.4013 7.32102 70.2109 6.88636 70.2109 6.38068C70.2109 5.88068 70.4013 5.4517 70.782 5.09375C71.1683 4.73011 71.6314 4.54829 72.1712 4.54829C72.7109 4.54829 73.1712 4.73011 73.5518 5.09375C73.9382 5.4517 74.1314 5.88068 74.1314 6.38068C74.1314 6.88636 73.9382 7.32102 73.5518 7.68466C73.1712 8.04261 72.7109 8.22159 72.1712 8.22159ZM82.8523 23.2557C81.5057 23.2557 80.3466 22.983 79.375 22.4375C78.4091 21.8864 77.6648 21.108 77.142 20.1023C76.6193 19.0909 76.358 17.8949 76.358 16.5142C76.358 15.1676 76.6193 13.9858 77.142 12.9688C77.6648 11.9517 78.4006 11.1591 79.3494 10.5909C80.304 10.0227 81.4233 9.73864 82.7074 9.73864C83.571 9.73864 84.375 9.87784 85.1193 10.1562C85.8693 10.429 86.5227 10.8409 87.0795 11.392C87.642 11.9432 88.0795 12.6364 88.392 13.4716C88.7045 14.3011 88.8608 15.2727 88.8608 16.3864V17.3835H77.8068V15.1335H85.4432C85.4432 14.6108 85.3295 14.1477 85.1023 13.7443C84.875 13.3409 84.5597 13.0256 84.1562 12.7983C83.7585 12.5653 83.2955 12.4489 82.767 12.4489C82.2159 12.4489 81.7273 12.5767 81.3011 12.8324C80.8807 13.0824 80.5511 13.4205 80.3125 13.8466C80.0739 14.267 79.9517 14.7358 79.946 15.2528V17.392C79.946 18.0398 80.0653 18.5994 80.304 19.071C80.5483 19.5426 80.892 19.9062 81.3352 20.1619C81.7784 20.4176 82.304 20.5455 82.9119 20.5455C83.3153 20.5455 83.6847 20.4886 84.0199 20.375C84.3551 20.2614 84.642 20.0909 84.8807 19.8636C85.1193 19.6364 85.3011 19.358 85.4261 19.0284L88.7841 19.25C88.6136 20.0568 88.2642 20.7614 87.7358 21.3636C87.2131 21.9602 86.5369 22.4261 85.7074 22.7614C84.8835 23.0909 83.9318 23.2557 82.8523 23.2557ZM93.3523 23.2216C92.7898 23.2216 92.3068 23.0227 91.9034 22.625C91.5057 22.2216 91.3068 21.7386 91.3068 21.1761C91.3068 20.6193 91.5057 20.142 91.9034 19.7443C92.3068 19.3466 92.7898 19.1477 93.3523 19.1477C93.8977 19.1477 94.375 19.3466 94.7841 19.7443C95.1932 20.142 95.3977 20.6193 95.3977 21.1761C95.3977 21.5511 95.3011 21.8949 95.108 22.2074C94.9205 22.5142 94.6733 22.7614 94.3665 22.9489C94.0597 23.1307 93.7216 23.2216 93.3523 23.2216ZM100.501 23.2216C99.9382 23.2216 99.4553 23.0227 99.0518 22.625C98.6541 22.2216 98.4553 21.7386 98.4553 21.1761C98.4553 20.6193 98.6541 20.142 99.0518 19.7443C99.4553 19.3466 99.9382 19.1477 100.501 19.1477C101.046 19.1477 101.523 19.3466 101.933 19.7443C102.342 20.142 102.546 20.6193 102.546 21.1761C102.546 21.5511 102.45 21.8949 102.256 22.2074C102.069 22.5142 101.822 22.7614 101.515 22.9489C101.208 23.1307 100.87 23.2216 100.501 23.2216Z" fill="black"/>
<path d="M107.649 23.2216C107.087 23.2216 106.604 23.0227 106.2 22.625C105.803 22.2216 105.604 21.7386 105.604 21.1761C105.604 20.6193 105.803 20.142 106.2 19.7443C106.604 19.3466 107.087 19.1477 107.649 19.1477C108.195 19.1477 108.672 19.3466 109.081 19.7443C109.49 20.142 109.695 20.6193 109.695 21.1761C109.695 21.5511 109.598 21.8949 109.405 22.2074C109.217 22.5142 108.97 22.7614 108.663 22.9489C108.357 23.1307 108.018 23.2216 107.649 23.2216Z" fill="#FF0B55"/>
</g>
<defs>
<clipPath id="clip0_792_871">
<rect width="111" height="30" fill="white"/>
</clipPath>
</defs>
</svg>
