<svg width="128" height="65" viewBox="0 0 128 65" fill="none" xmlns="http://www.w3.org/2000/svg">
<path d="M35.4981 23.9402C35.8705 23.4256 36.5862 23.3017 37.1094 23.6619C37.6166 24.0111 37.766 24.6942 37.4512 25.2234L31.5752 35.0974C31.2481 35.8781 31.0762 36.7174 31.0762 37.5681V41.3006L33.7325 55.1717C33.8359 55.7116 33.5317 56.2467 33.0147 56.4334C32.4091 56.6518 31.744 56.3147 31.5625 55.6971L28.0811 43.8504L24.6006 55.6971C24.4192 56.3146 23.7549 56.6515 23.1495 56.4334C22.6322 56.2469 22.3273 55.7117 22.4307 55.1717L25.0879 41.2957V37.5681C25.0879 36.7137 24.913 35.8712 24.5831 35.0877L18.7139 25.2234C18.3991 24.6941 18.5485 24.0111 19.0557 23.6619C19.579 23.3017 20.2947 23.4256 20.667 23.9402L26.045 31.3719L26.3487 31.5242C26.7632 31.7314 27.2202 31.8396 27.6836 31.8396H28.8028C29.2552 31.8396 29.6957 31.693 30.0577 31.4217C30.0746 31.409 30.0927 31.3971 30.1104 31.3855L35.4981 23.9402ZM28.2393 24.2752C29.6317 24.2753 30.7606 25.4043 30.7608 26.7967C30.7608 28.1892 29.6318 29.318 28.2393 29.3181C26.8467 29.3181 25.7178 28.1893 25.7178 26.7967C25.718 25.4042 26.8468 24.2752 28.2393 24.2752Z" fill="url(#paint0_linear_463_18537)"/>
<mask id="path-2-inside-1_463_18537" fill="white">
<path d="M28.3187 9.77641C32.1678 9.77645 35.9793 10.5425 39.5355 12.0313C42.9347 13.4545 46.0376 15.5114 48.682 18.0928C48.8851 18.2912 48.8846 18.6165 48.6849 18.8184C48.4821 19.0233 48.1511 19.0235 47.9446 18.8223C46.8249 17.7315 45.6205 16.7379 44.3441 15.8506L40.5921 19.6036C40.4054 19.7902 40.1021 19.7902 39.9154 19.6036C39.7287 19.4169 39.7287 19.1135 39.9154 18.9268L43.5325 15.3086C42.1417 14.4115 40.6735 13.6354 39.1419 12.9942C38.372 12.6718 37.5886 12.3865 36.7962 12.1348L35.5218 16.8955C35.4534 17.1506 35.1909 17.3018 34.9359 17.2334C34.6808 17.1651 34.5296 16.9026 34.598 16.6475L35.8812 11.8584C33.5245 11.1974 31.0885 10.85 28.6341 10.8223V16.4825C28.6339 16.8305 28.3513 17.1123 28.0032 17.1123C27.6552 17.1123 27.3726 16.8305 27.3724 16.4825V10.836C24.9535 10.9178 22.5578 11.3119 20.2435 12.0088L21.4876 16.6475C21.556 16.9026 21.4048 17.1651 21.1497 17.2334C20.8947 17.3018 20.6321 17.1506 20.5638 16.8955L19.3323 12.2998C18.7132 12.5096 18.1004 12.7409 17.4954 12.9942C15.891 13.6659 14.3547 14.4836 12.9056 15.4356L16.3968 18.9268C16.5835 19.1135 16.5835 19.4168 16.3968 19.6036C16.2101 19.7902 15.9067 19.7902 15.72 19.6036L12.1019 15.9854C10.8962 16.8383 9.75543 17.786 8.69172 18.8223C8.48522 19.0234 8.15422 19.0233 7.95149 18.8184C7.75192 18.6166 7.75132 18.2911 7.95442 18.0928C10.5988 15.5114 13.7016 13.4545 17.1009 12.0313C20.6572 10.5424 24.4693 9.77641 28.3187 9.77641Z"/>
</mask>
<path d="M28.3187 9.77641C32.1678 9.77645 35.9793 10.5425 39.5355 12.0313C42.9347 13.4545 46.0376 15.5114 48.682 18.0928C48.8851 18.2912 48.8846 18.6165 48.6849 18.8184C48.4821 19.0233 48.1511 19.0235 47.9446 18.8223C46.8249 17.7315 45.6205 16.7379 44.3441 15.8506L40.5921 19.6036C40.4054 19.7902 40.1021 19.7902 39.9154 19.6036C39.7287 19.4169 39.7287 19.1135 39.9154 18.9268L43.5325 15.3086C42.1417 14.4115 40.6735 13.6354 39.1419 12.9942C38.372 12.6718 37.5886 12.3865 36.7962 12.1348L35.5218 16.8955C35.4534 17.1506 35.1909 17.3018 34.9359 17.2334C34.6808 17.1651 34.5296 16.9026 34.598 16.6475L35.8812 11.8584C33.5245 11.1974 31.0885 10.85 28.6341 10.8223V16.4825C28.6339 16.8305 28.3513 17.1123 28.0032 17.1123C27.6552 17.1123 27.3726 16.8305 27.3724 16.4825V10.836C24.9535 10.9178 22.5578 11.3119 20.2435 12.0088L21.4876 16.6475C21.556 16.9026 21.4048 17.1651 21.1497 17.2334C20.8947 17.3018 20.6321 17.1506 20.5638 16.8955L19.3323 12.2998C18.7132 12.5096 18.1004 12.7409 17.4954 12.9942C15.891 13.6659 14.3547 14.4836 12.9056 15.4356L16.3968 18.9268C16.5835 19.1135 16.5835 19.4168 16.3968 19.6036C16.2101 19.7902 15.9067 19.7902 15.72 19.6036L12.1019 15.9854C10.8962 16.8383 9.75543 17.786 8.69172 18.8223C8.48522 19.0234 8.15422 19.0233 7.95149 18.8184C7.75192 18.6166 7.75132 18.2911 7.95442 18.0928C10.5988 15.5114 13.7016 13.4545 17.1009 12.0313C20.6572 10.5424 24.4693 9.77641 28.3187 9.77641Z" fill="white"/>
<path d="M28.3187 9.77641L28.3187 9.54803H28.3187V9.77641ZM39.5355 12.0313L39.6237 11.8206L39.6237 11.8206L39.5355 12.0313ZM48.682 18.0928L48.8415 17.9294V17.9294L48.682 18.0928ZM48.6849 18.8184L48.8472 18.979L48.8472 18.979L48.6849 18.8184ZM47.9446 18.8223L48.104 18.6587L47.9446 18.8223ZM44.3441 15.8506L44.4744 15.6631L44.3176 15.5541L44.1826 15.6892L44.3441 15.8506ZM40.5921 19.6036L40.7536 19.7651L40.7536 19.765L40.5921 19.6036ZM39.9154 19.6036L39.7539 19.765L39.7539 19.7651L39.9154 19.6036ZM39.9154 18.9268L39.7538 18.7653L39.7538 18.7653L39.9154 18.9268ZM43.5325 15.3086L43.6941 15.4701L43.894 15.2701L43.6563 15.1167L43.5325 15.3086ZM39.1419 12.9942L39.2301 12.7835L39.2301 12.7835L39.1419 12.9942ZM36.7962 12.1348L36.8653 11.9171L36.6374 11.8448L36.5756 12.0757L36.7962 12.1348ZM35.5218 16.8955L35.7424 16.9547L35.7424 16.9546L35.5218 16.8955ZM34.9359 17.2334L34.8767 17.454L34.8768 17.454L34.9359 17.2334ZM34.598 16.6475L34.8186 16.7066V16.7066L34.598 16.6475ZM35.8812 11.8584L36.1018 11.9175L36.1602 11.6995L35.9429 11.6385L35.8812 11.8584ZM28.6341 10.8223L28.6367 10.5939L28.4057 10.5913V10.8223H28.6341ZM28.6341 16.4825L28.8625 16.4826V16.4825H28.6341ZM28.0032 17.1123V17.3407H28.0032L28.0032 17.1123ZM27.3724 16.4825H27.144V16.4826L27.3724 16.4825ZM27.3724 10.836H27.6008V10.5997L27.3647 10.6077L27.3724 10.836ZM20.2435 12.0088L20.1776 11.7901L19.9655 11.854L20.0229 12.068L20.2435 12.0088ZM21.4876 16.6475L21.7082 16.5884L21.7082 16.5883L21.4876 16.6475ZM21.1497 17.2334L21.2088 17.454L21.2088 17.454L21.1497 17.2334ZM20.5638 16.8955L20.3432 16.9547L20.3432 16.9547L20.5638 16.8955ZM19.3323 12.2998L19.5529 12.2407L19.4899 12.0054L19.2591 12.0835L19.3323 12.2998ZM17.4954 12.9942L17.4072 12.7835L17.4072 12.7835L17.4954 12.9942ZM12.9056 15.4356L12.7802 15.2447L12.5457 15.3987L12.7441 15.5971L12.9056 15.4356ZM16.3968 18.9268L16.5583 18.7653L16.5583 18.7653L16.3968 18.9268ZM16.3968 19.6036L16.5583 19.7651L16.5583 19.765L16.3968 19.6036ZM15.72 19.6036L15.5586 19.765L15.5586 19.765L15.72 19.6036ZM12.1019 15.9854L12.2634 15.8239L12.1272 15.6877L11.97 15.7989L12.1019 15.9854ZM8.69172 18.8223L8.85106 18.9859L8.85108 18.9859L8.69172 18.8223ZM7.95149 18.8184L7.78908 18.979L7.78914 18.979L7.95149 18.8184ZM7.95442 18.0928L7.79488 17.9294L7.79486 17.9294L7.95442 18.0928ZM17.1009 12.0313L17.0127 11.8206L17.0127 11.8206L17.1009 12.0313ZM28.3187 9.77641L28.3187 10.0048C32.1375 10.0048 35.919 10.7649 39.4473 12.242L39.5355 12.0313L39.6237 11.8206C36.0396 10.3202 32.1981 9.54807 28.3187 9.54803L28.3187 9.77641ZM39.5355 12.0313L39.4473 12.242C42.8199 13.654 45.8986 15.6949 48.5224 18.2562L48.682 18.0928L48.8415 17.9294C46.1766 15.328 43.0496 13.2549 39.6237 11.8206L39.5355 12.0313ZM48.682 18.0928L48.5224 18.2562C48.6329 18.3641 48.6351 18.544 48.5225 18.6578L48.6849 18.8184L48.8472 18.979C49.1341 18.6891 49.1373 18.2182 48.8415 17.9294L48.682 18.0928ZM48.6849 18.8184L48.5225 18.6578C48.4096 18.7719 48.2223 18.774 48.104 18.6587L47.9446 18.8223L47.7853 18.9859C48.08 19.273 48.5546 19.2748 48.8472 18.979L48.6849 18.8184ZM47.9446 18.8223L48.104 18.6587C46.9753 17.5591 45.7611 16.5575 44.4744 15.6631L44.3441 15.8506L44.2137 16.0382C45.4798 16.9182 46.6745 17.9038 47.7853 18.9859L47.9446 18.8223ZM44.3441 15.8506L44.1826 15.6892L40.4306 19.4421L40.5921 19.6036L40.7536 19.765L44.5056 16.0121L44.3441 15.8506ZM40.5921 19.6036L40.4306 19.442C40.3331 19.5396 40.1743 19.5395 40.0768 19.4421L39.9154 19.6036L39.7539 19.7651C40.0298 20.0409 40.4777 20.0409 40.7536 19.7651L40.5921 19.6036ZM39.9154 19.6036L40.0768 19.4421C39.9794 19.3446 39.9793 19.1858 40.0769 19.0883L39.9154 18.9268L39.7538 18.7653C39.478 19.0412 39.4779 19.4891 39.7539 19.765L39.9154 19.6036ZM39.9154 18.9268L40.0769 19.0883L43.6941 15.4701L43.5325 15.3086L43.371 15.1472L39.7538 18.7653L39.9154 18.9268ZM43.5325 15.3086L43.6563 15.1167C42.2544 14.2124 40.7743 13.4301 39.2301 12.7835L39.1419 12.9942L39.0537 13.2048C40.5727 13.8408 42.029 14.6106 43.4087 15.5005L43.5325 15.3086ZM39.1419 12.9942L39.2301 12.7835C38.4536 12.4584 37.6638 12.1707 36.8653 11.9171L36.7962 12.1348L36.7271 12.3525C37.5134 12.6022 38.2904 12.8853 39.0537 13.2048L39.1419 12.9942ZM36.7962 12.1348L36.5756 12.0757L35.3012 16.8365L35.5218 16.8955L35.7424 16.9546L37.0168 12.1939L36.7962 12.1348ZM35.5218 16.8955L35.3012 16.8364C35.2656 16.9694 35.1285 17.0486 34.995 17.0128L34.9359 17.2334L34.8768 17.454C35.2534 17.5549 35.6413 17.3318 35.7424 16.9547L35.5218 16.8955ZM34.9359 17.2334L34.995 17.0128C34.862 16.9772 34.7828 16.8401 34.8186 16.7066L34.598 16.6475L34.3774 16.5884C34.2765 16.965 34.4996 17.3529 34.8767 17.454L34.9359 17.2334ZM34.598 16.6475L34.8186 16.7066L36.1018 11.9175L35.8812 11.8584L35.6606 11.7993L34.3774 16.5884L34.598 16.6475ZM35.8812 11.8584L35.9429 11.6385C33.5668 10.9721 31.1109 10.6219 28.6367 10.5939L28.6341 10.8223L28.6315 11.0507C31.066 11.0781 33.4822 11.4228 35.8195 12.0783L35.8812 11.8584ZM28.6341 10.8223H28.4057V16.4825H28.6341H28.8625V10.8223H28.6341ZM28.6341 16.4825L28.4057 16.4823C28.4056 16.704 28.2255 16.884 28.0032 16.884L28.0032 17.1123L28.0032 17.3407C28.4771 17.3407 28.8622 16.957 28.8625 16.4826L28.6341 16.4825ZM28.0032 17.1123V16.884C27.781 16.884 27.6009 16.704 27.6008 16.4823L27.3724 16.4825L27.144 16.4826C27.1443 16.957 27.5294 17.3407 28.0032 17.3407V17.1123ZM27.3724 16.4825H27.6008V10.836H27.3724H27.144V16.4825H27.3724ZM27.3724 10.836L27.3647 10.6077C24.9261 10.6902 22.5109 11.0875 20.1776 11.7901L20.2435 12.0088L20.3093 12.2275C22.6048 11.5363 24.9809 11.1454 27.3801 11.0642L27.3724 10.836ZM20.2435 12.0088L20.0229 12.068L21.267 16.7067L21.4876 16.6475L21.7082 16.5883L20.4641 11.9497L20.2435 12.0088ZM21.4876 16.6475L21.267 16.7066C21.3028 16.8401 21.2236 16.9772 21.0906 17.0128L21.1497 17.2334L21.2088 17.454C21.586 17.353 21.8091 16.965 21.7082 16.5884L21.4876 16.6475ZM21.1497 17.2334L21.0906 17.0128C20.9571 17.0486 20.82 16.9694 20.7844 16.8364L20.5638 16.8955L20.3432 16.9547C20.4443 17.3318 20.8322 17.5549 21.2088 17.454L21.1497 17.2334ZM20.5638 16.8955L20.7844 16.8364L19.5529 12.2407L19.3323 12.2998L19.1117 12.359L20.3432 16.9547L20.5638 16.8955ZM19.3323 12.2998L19.2591 12.0835C18.6349 12.2949 18.0172 12.5281 17.4072 12.7835L17.4954 12.9942L17.5836 13.2048C18.1837 12.9536 18.7914 12.7242 19.4056 12.5162L19.3323 12.2998ZM17.4954 12.9942L17.4072 12.7835C15.7898 13.4607 14.2411 14.285 12.7802 15.2447L12.9056 15.4356L13.031 15.6265C14.4684 14.6822 15.9922 13.8711 17.5836 13.2048L17.4954 12.9942ZM12.9056 15.4356L12.7441 15.5971L16.2353 19.0883L16.3968 18.9268L16.5583 18.7653L13.0671 15.2741L12.9056 15.4356ZM16.3968 18.9268L16.2353 19.0883C16.3328 19.1858 16.3328 19.3445 16.2353 19.4421L16.3968 19.6036L16.5583 19.765C16.8342 19.4891 16.8342 19.0412 16.5583 18.7653L16.3968 18.9268ZM16.3968 19.6036L16.2353 19.442C16.1378 19.5396 15.979 19.5395 15.8815 19.4421L15.72 19.6036L15.5586 19.765C15.8345 20.041 16.2824 20.0408 16.5583 19.7651L16.3968 19.6036ZM15.72 19.6036L15.8815 19.4421L12.2634 15.8239L12.1019 15.9854L11.9404 16.1469L15.5586 19.765L15.72 19.6036ZM12.1019 15.9854L11.97 15.7989C10.7546 16.6587 9.60467 17.6141 8.53236 18.6587L8.69172 18.8223L8.85108 18.9859C9.90619 17.958 11.0378 17.0179 12.2338 16.1718L12.1019 15.9854ZM8.69172 18.8223L8.53238 18.6587C8.41403 18.774 8.22669 18.7718 8.11384 18.6578L7.95149 18.8184L7.78914 18.979C8.08175 19.2748 8.55642 19.2729 8.85106 18.9859L8.69172 18.8223ZM7.95149 18.8184L8.11389 18.6578C8.00139 18.544 8.00355 18.364 8.11397 18.2562L7.95442 18.0928L7.79486 17.9294C7.4991 18.2182 7.50246 18.6891 7.78908 18.979L7.95149 18.8184ZM7.95442 18.0928L8.11395 18.2562C10.7378 15.6948 13.8164 13.654 17.1891 12.242L17.1009 12.0313L17.0127 11.8206C13.5868 13.255 10.4598 15.3279 7.79488 17.9294L7.95442 18.0928ZM17.1009 12.0313L17.1891 12.242C20.7175 10.7647 24.4997 10.0048 28.3187 10.0048V9.77641V9.54803C24.439 9.54803 20.5969 10.3201 17.0127 11.8206L17.1009 12.0313Z" fill="#545F71" mask="url(#path-2-inside-1_463_18537)"/>
<path d="M66.6079 19.5396C68.0627 19.5396 69.1462 19.8806 69.8585 20.5625C70.5708 21.2445 70.9269 22.2522 70.9269 23.5858C70.9269 24.2981 70.7526 24.927 70.4041 25.4725C70.0555 26.0029 69.5403 26.4197 68.8583 26.7228C68.1764 27.0107 67.3353 27.1547 66.3351 27.1547L66.426 26.1318C66.8958 26.1318 67.4338 26.1999 68.04 26.3363C68.6461 26.4576 69.2296 26.6849 69.7903 27.0183C70.3662 27.3365 70.836 27.7912 71.1997 28.3822C71.5785 28.958 71.768 29.7006 71.768 30.6099C71.768 31.6101 71.6013 32.4284 71.2679 33.0649C70.9496 33.7014 70.5253 34.1939 69.9949 34.5425C69.4645 34.891 68.8962 35.1335 68.29 35.2699C67.6838 35.3911 67.1004 35.4517 66.5397 35.4517H60.8795C60.4855 35.4517 60.1521 35.3229 59.8793 35.0653C59.6217 34.7925 59.4929 34.4591 59.4929 34.0651V20.9262C59.4929 20.5322 59.6217 20.2064 59.8793 19.9487C60.1521 19.676 60.4855 19.5396 60.8795 19.5396H66.6079ZM66.1987 22.2219H62.1525L62.448 21.8582V25.9726L62.1752 25.768H66.2669C66.7064 25.768 67.1004 25.6241 67.4489 25.3361C67.7975 25.0482 67.9718 24.6315 67.9718 24.0859C67.9718 23.4343 67.8051 22.9645 67.4717 22.6765C67.1534 22.3735 66.7291 22.2219 66.1987 22.2219ZM66.3806 28.4504H62.2434L62.448 28.2685V33.0649L62.2207 32.8376H66.5397C67.2368 32.8376 67.7899 32.6557 68.1991 32.292C68.6083 31.9132 68.8128 31.3524 68.8128 30.6099C68.8128 29.9279 68.6765 29.4354 68.4037 29.1323C68.1309 28.8292 67.8051 28.6398 67.4262 28.564C67.0474 28.4883 66.6988 28.4504 66.3806 28.4504ZM77.6844 34.0651C77.6844 34.4591 77.5404 34.7925 77.2525 35.0653C76.9646 35.3229 76.6312 35.4517 76.2523 35.4517C75.828 35.4517 75.487 35.3229 75.2294 35.0653C74.9718 34.7925 74.8429 34.4591 74.8429 34.0651V20.9262C74.8429 20.5322 74.9793 20.2064 75.2521 19.9487C75.5249 19.676 75.8734 19.5396 76.2978 19.5396C76.6615 19.5396 76.9797 19.676 77.2525 19.9487C77.5404 20.2064 77.6844 20.5322 77.6844 20.9262V34.0651ZM93.6281 19.5396C93.9918 19.5396 94.2874 19.6608 94.5147 19.9033C94.742 20.1458 94.8557 20.4488 94.8557 20.8126V34.0651C94.8557 34.4591 94.7193 34.7925 94.4465 35.0653C94.1889 35.3229 93.863 35.4517 93.469 35.4517C93.272 35.4517 93.0674 35.4214 92.8553 35.3608C92.6583 35.285 92.5067 35.1865 92.4006 35.0653L83.4671 23.7222L84.0581 23.3585V34.1787C84.0581 34.5425 83.9369 34.8455 83.6944 35.088C83.4671 35.3305 83.164 35.4517 82.7852 35.4517C82.4215 35.4517 82.1259 35.3305 81.8986 35.088C81.6713 34.8455 81.5577 34.5425 81.5577 34.1787V20.9262C81.5577 20.5322 81.6865 20.2064 81.9441 19.9487C82.2169 19.676 82.5503 19.5396 82.9443 19.5396C83.1564 19.5396 83.3762 19.585 83.6035 19.676C83.8308 19.7517 83.9975 19.873 84.1036 20.0397L92.7643 31.0872L92.3779 31.36V20.8126C92.3779 20.4488 92.4916 20.1458 92.7189 19.9033C92.9462 19.6608 93.2493 19.5396 93.6281 19.5396ZM100.16 35.4517C99.7358 35.4517 99.3872 35.3229 99.1145 35.0653C98.8568 34.7925 98.728 34.4591 98.728 34.0651V20.9262C98.728 20.5322 98.8568 20.2064 99.1145 19.9487C99.3872 19.676 99.7206 19.5396 100.115 19.5396H107.502C107.896 19.5396 108.222 19.6684 108.48 19.926C108.753 20.1685 108.889 20.4867 108.889 20.8807C108.889 21.2141 108.753 21.5097 108.48 21.7673C108.222 22.0249 107.896 22.1537 107.502 22.1537H101.365L101.569 21.8809V26.45L101.41 26.1545H106.48C106.874 26.1545 107.199 26.2833 107.457 26.5409C107.73 26.7834 107.866 27.1016 107.866 27.4956C107.866 27.829 107.73 28.1246 107.457 28.3822C107.199 28.6398 106.874 28.7686 106.48 28.7686H101.365L101.569 28.564V34.0651C101.569 34.4591 101.426 34.7925 101.138 35.0653C100.865 35.3229 100.539 35.4517 100.16 35.4517ZM126.386 27.4956C126.386 28.6322 126.197 29.693 125.818 30.6781C125.439 31.6631 124.901 32.5345 124.204 33.2922C123.522 34.0348 122.704 34.6182 121.749 35.0425C120.81 35.4669 119.779 35.679 118.658 35.679C117.536 35.679 116.506 35.4669 115.566 35.0425C114.627 34.6182 113.808 34.0348 113.111 33.2922C112.429 32.5345 111.899 31.6631 111.52 30.6781C111.141 29.693 110.952 28.6322 110.952 27.4956C110.952 26.3591 111.141 25.2983 111.52 24.3132C111.899 23.3282 112.429 22.4644 113.111 21.7218C113.808 20.9641 114.627 20.3731 115.566 19.9487C116.506 19.5244 117.536 19.3123 118.658 19.3123C119.779 19.3123 120.81 19.5244 121.749 19.9487C122.704 20.3731 123.522 20.9641 124.204 21.7218C124.901 22.4644 125.439 23.3282 125.818 24.3132C126.197 25.2983 126.386 26.3591 126.386 27.4956ZM123.431 27.4956C123.431 26.4803 123.227 25.5635 122.818 24.7451C122.408 23.9116 121.848 23.2524 121.135 22.7675C120.423 22.2825 119.597 22.0401 118.658 22.0401C117.718 22.0401 116.892 22.2825 116.18 22.7675C115.468 23.2524 114.907 23.9041 114.498 24.7224C114.104 25.5407 113.907 26.4651 113.907 27.4956C113.907 28.511 114.104 29.4354 114.498 30.2689C114.907 31.0872 115.468 31.7389 116.18 32.2238C116.892 32.7088 117.718 32.9512 118.658 32.9512C119.597 32.9512 120.423 32.7088 121.135 32.2238C121.848 31.7389 122.408 31.0872 122.818 30.2689C123.227 29.4354 123.431 28.511 123.431 27.4956Z" fill="url(#paint1_linear_463_18537)"/>
<path d="M57.8926 46.5771V45.3163H63.8328V46.5771H61.6185V52.5491H60.1069V46.5771H57.8926ZM64.7168 52.5491V47.1245H66.1753V48.071H66.2318C66.3307 47.7343 66.4967 47.48 66.7298 47.3082C66.9629 47.1339 67.2313 47.0468 67.535 47.0468C67.6103 47.0468 67.6916 47.0515 67.7787 47.0609C67.8658 47.0704 67.9423 47.0833 68.0082 47.0998V48.4348C67.9376 48.4136 67.8399 48.3947 67.7151 48.3782C67.5903 48.3618 67.4761 48.3535 67.3726 48.3535C67.1512 48.3535 66.9535 48.4018 66.7792 48.4983C66.6074 48.5925 66.4708 48.7243 66.3696 48.8939C66.2707 49.0634 66.2212 49.2588 66.2212 49.4801V52.5491H64.7168ZM70.6748 52.6515C70.3287 52.6515 70.0203 52.5915 69.7495 52.4714C69.4788 52.349 69.2645 52.1689 69.1068 51.9311C68.9514 51.6909 68.8737 51.3919 68.8737 51.034C68.8737 50.7327 68.929 50.4796 69.0397 50.2747C69.1503 50.0699 69.301 49.9051 69.4917 49.7803C69.6824 49.6555 69.899 49.5613 70.1415 49.4978C70.3864 49.4342 70.643 49.3895 70.9114 49.3636C71.2269 49.3306 71.4812 49.3 71.6743 49.2718C71.8673 49.2411 72.0074 49.1964 72.0945 49.1376C72.1816 49.0787 72.2252 48.9916 72.2252 48.8762V48.855C72.2252 48.6313 72.1546 48.4583 72.0133 48.3359C71.8744 48.2134 71.6766 48.1522 71.42 48.1522C71.1492 48.1522 70.9338 48.2123 70.7737 48.3323C70.6136 48.4501 70.5076 48.5984 70.4558 48.7773L69.0644 48.6643C69.135 48.3347 69.2739 48.0498 69.4811 47.8097C69.6883 47.5672 69.9555 47.3812 70.2828 47.2517C70.6124 47.1198 70.9938 47.0539 71.427 47.0539C71.7284 47.0539 72.0168 47.0892 72.2923 47.1598C72.5701 47.2305 72.8162 47.3399 73.0304 47.4883C73.247 47.6366 73.4177 47.8273 73.5425 48.0604C73.6673 48.2911 73.7297 48.5678 73.7297 48.8903V52.5491H72.3029V51.7969H72.2605C72.1734 51.9664 72.0569 52.1159 71.9109 52.2454C71.7649 52.3725 71.5895 52.4726 71.3847 52.5456C71.1798 52.6162 70.9432 52.6515 70.6748 52.6515ZM71.1057 51.6132C71.327 51.6132 71.5224 51.5697 71.6919 51.4826C71.8614 51.3931 71.9945 51.273 72.091 51.1223C72.1875 50.9716 72.2358 50.801 72.2358 50.6102V50.0346C72.1887 50.0652 72.124 50.0934 72.0416 50.1193C71.9615 50.1429 71.8709 50.1653 71.7696 50.1864C71.6684 50.2053 71.5671 50.2229 71.4659 50.2394C71.3647 50.2535 71.2728 50.2665 71.1904 50.2783C71.0138 50.3042 70.8596 50.3454 70.7278 50.4019C70.5959 50.4584 70.4935 50.5349 70.4205 50.6314C70.3475 50.7256 70.3111 50.8433 70.3111 50.9846C70.3111 51.1894 70.3852 51.346 70.5335 51.4543C70.6842 51.5603 70.8749 51.6132 71.1057 51.6132ZM77.8451 52.6551C77.2894 52.6551 76.8115 52.5373 76.4112 52.3019C76.0133 52.0641 75.7073 51.7345 75.493 51.313C75.2811 50.8916 75.1752 50.4066 75.1752 49.858C75.1752 49.3024 75.2823 48.815 75.4966 48.3959C75.7132 47.9745 76.0204 47.646 76.4183 47.4106C76.8162 47.1728 77.2894 47.0539 77.838 47.0539C78.3113 47.0539 78.7256 47.1398 79.0812 47.3117C79.4367 47.4836 79.718 47.7249 79.9252 48.0357C80.1324 48.3465 80.2466 48.7114 80.2678 49.1305H78.8481C78.808 48.8597 78.7021 48.6419 78.5302 48.4771C78.3607 48.31 78.1382 48.2264 77.8627 48.2264C77.6297 48.2264 77.426 48.29 77.2518 48.4171C77.0799 48.5419 76.9457 48.7243 76.8492 48.9645C76.7526 49.2047 76.7044 49.4954 76.7044 49.8368C76.7044 50.1829 76.7515 50.4772 76.8456 50.7197C76.9422 50.9622 77.0775 51.1471 77.2518 51.2742C77.426 51.4013 77.6297 51.4649 77.8627 51.4649C78.0346 51.4649 78.1888 51.4296 78.3254 51.3589C78.4643 51.2883 78.5785 51.1859 78.668 51.0517C78.7598 50.9151 78.8198 50.7515 78.8481 50.5608H80.2678C80.2442 50.9752 80.1312 51.3401 79.9288 51.6556C79.7286 51.9687 79.452 52.2136 79.0988 52.3902C78.7457 52.5668 78.3277 52.6551 77.8451 52.6551ZM83.0915 50.9881L83.095 49.1835H83.314L85.0516 47.1245H86.7785L84.4441 49.8509H84.0874L83.0915 50.9881ZM81.7283 52.5491V45.3163H83.2328V52.5491H81.7283ZM85.1187 52.5491L83.5224 50.1864L84.5254 49.1234L86.881 52.5491H85.1187ZM93.0308 52.6551C92.5316 52.6551 92.1008 52.5656 91.7382 52.3867C91.3756 52.2077 91.0966 51.9652 90.9012 51.6591C90.7081 51.3507 90.6116 51.007 90.6116 50.6279C90.6116 50.3454 90.6681 50.0946 90.7811 49.8757C90.8941 49.6567 91.0519 49.4554 91.2544 49.2718C91.4568 49.0858 91.6923 48.9009 91.9607 48.7173L93.3627 47.7955C93.544 47.6802 93.6771 47.5589 93.7618 47.4318C93.8466 47.3023 93.889 47.1622 93.889 47.0115C93.889 46.8679 93.8313 46.7349 93.7159 46.6124C93.6005 46.49 93.4369 46.43 93.225 46.4323C93.0837 46.4323 92.9613 46.4641 92.8577 46.5277C92.7541 46.5889 92.6729 46.6701 92.614 46.7714C92.5575 46.8702 92.5293 46.9809 92.5293 47.1033C92.5293 47.254 92.5717 47.407 92.6564 47.5624C92.7412 47.7178 92.8542 47.8826 92.9954 48.0569C93.1367 48.2287 93.2909 48.4147 93.4581 48.6149L96.8873 52.5491H95.3193L92.4586 49.3636C92.2703 49.1493 92.0819 48.9257 91.8936 48.6926C91.7076 48.4571 91.5522 48.2076 91.4274 47.9439C91.3026 47.6778 91.2402 47.3894 91.2402 47.0786C91.2402 46.7278 91.3215 46.4123 91.4839 46.1321C91.6487 45.852 91.8795 45.6306 92.1761 45.4682C92.4728 45.3034 92.8189 45.221 93.2144 45.221C93.6005 45.221 93.9337 45.2998 94.2139 45.4576C94.4964 45.613 94.713 45.8202 94.8637 46.0792C95.0167 46.3358 95.0932 46.6183 95.0932 46.9267C95.0932 47.2681 95.0085 47.5777 94.839 47.8556C94.6718 48.131 94.4364 48.3782 94.1326 48.5972L92.6564 49.6602C92.4563 49.8062 92.308 49.9557 92.2114 50.1088C92.1172 50.2594 92.0702 50.4042 92.0702 50.5431C92.0702 50.715 92.1125 50.8692 92.1973 51.0058C92.2821 51.1423 92.4021 51.2506 92.5575 51.3307C92.7129 51.4084 92.8954 51.4472 93.1049 51.4472C93.3592 51.4472 93.61 51.3896 93.8572 51.2742C94.1067 51.1565 94.3328 50.9905 94.5352 50.7762C94.7401 50.5596 94.9037 50.303 95.0261 50.0063C95.1486 49.7097 95.2098 49.3812 95.2098 49.021H96.4565C96.4565 49.4636 96.4082 49.8627 96.3117 50.2182C96.2151 50.5714 96.0809 50.8798 95.909 51.1435C95.7372 51.4049 95.5406 51.6191 95.3193 51.7863C95.2486 51.831 95.1804 51.8734 95.1144 51.9134C95.0485 51.9534 94.9802 51.9958 94.9096 52.0406C94.6412 52.2572 94.341 52.4137 94.009 52.5103C93.6794 52.6068 93.3533 52.6551 93.0308 52.6551ZM100.563 46.5771V45.3163H106.503V46.5771H104.289V52.5491H102.778V46.5771H100.563ZM107.387 52.5491V47.1245H108.846V48.071H108.902C109.001 47.7343 109.167 47.48 109.4 47.3082C109.634 47.1339 109.902 47.0468 110.206 47.0468C110.281 47.0468 110.362 47.0515 110.449 47.0609C110.536 47.0704 110.613 47.0833 110.679 47.0998V48.4348C110.608 48.4136 110.511 48.3947 110.386 48.3782C110.261 48.3618 110.147 48.3535 110.043 48.3535C109.822 48.3535 109.624 48.4018 109.45 48.4983C109.278 48.5925 109.141 48.7243 109.04 48.8939C108.941 49.0634 108.892 49.2588 108.892 49.4801V52.5491H107.387ZM113.345 52.6515C112.999 52.6515 112.691 52.5915 112.42 52.4714C112.149 52.349 111.935 52.1689 111.777 51.9311C111.622 51.6909 111.544 51.3919 111.544 51.034C111.544 50.7327 111.6 50.4796 111.71 50.2747C111.821 50.0699 111.972 49.9051 112.162 49.7803C112.353 49.6555 112.57 49.5613 112.812 49.4978C113.057 49.4342 113.314 49.3895 113.582 49.3636C113.898 49.3306 114.152 49.3 114.345 49.2718C114.538 49.2411 114.678 49.1964 114.765 49.1376C114.852 49.0787 114.896 48.9916 114.896 48.8762V48.855C114.896 48.6313 114.825 48.4583 114.684 48.3359C114.545 48.2134 114.347 48.1522 114.091 48.1522C113.82 48.1522 113.604 48.2123 113.444 48.3323C113.284 48.4501 113.178 48.5984 113.126 48.7773L111.735 48.6643C111.806 48.3347 111.945 48.0498 112.152 47.8097C112.359 47.5672 112.626 47.3812 112.953 47.2517C113.283 47.1198 113.664 47.0539 114.098 47.0539C114.399 47.0539 114.687 47.0892 114.963 47.1598C115.241 47.2305 115.487 47.3399 115.701 47.4883C115.918 47.6366 116.088 47.8273 116.213 48.0604C116.338 48.2911 116.4 48.5678 116.4 48.8903V52.5491H114.974V51.7969H114.931C114.844 51.9664 114.727 52.1159 114.582 52.2454C114.436 52.3725 114.26 52.4726 114.055 52.5456C113.85 52.6162 113.614 52.6515 113.345 52.6515ZM113.776 51.6132C113.998 51.6132 114.193 51.5697 114.363 51.4826C114.532 51.3931 114.665 51.273 114.762 51.1223C114.858 50.9716 114.906 50.801 114.906 50.6102V50.0346C114.859 50.0652 114.795 50.0934 114.712 50.1193C114.632 50.1429 114.541 50.1653 114.44 50.1864C114.339 50.2053 114.238 50.2229 114.137 50.2394C114.035 50.2535 113.943 50.2665 113.861 50.2783C113.684 50.3042 113.53 50.3454 113.398 50.4019C113.267 50.4584 113.164 50.5349 113.091 50.6314C113.018 50.7256 112.982 50.8433 112.982 50.9846C112.982 51.1894 113.056 51.346 113.204 51.4543C113.355 51.5603 113.546 51.6132 113.776 51.6132ZM118.065 52.5491V47.1245H119.569V52.5491H118.065ZM118.821 46.4253C118.597 46.4253 118.405 46.3511 118.245 46.2028C118.087 46.0521 118.008 45.872 118.008 45.6624C118.008 45.4552 118.087 45.2775 118.245 45.1291C118.405 44.9785 118.597 44.9031 118.821 44.9031C119.044 44.9031 119.235 44.9785 119.393 45.1291C119.553 45.2775 119.633 45.4552 119.633 45.6624C119.633 45.872 119.553 46.0521 119.393 46.2028C119.235 46.3511 119.044 46.4253 118.821 46.4253ZM122.776 49.413V52.5491H121.272V47.1245H122.706V48.0816H122.769C122.889 47.7661 123.09 47.5165 123.373 47.3329C123.656 47.1469 123.998 47.0539 124.401 47.0539C124.777 47.0539 125.106 47.1363 125.386 47.3011C125.666 47.4659 125.884 47.7014 126.039 48.0074C126.195 48.3111 126.272 48.6737 126.272 49.0952V52.5491H124.768V49.3636C124.77 49.0316 124.686 48.7726 124.514 48.5866C124.342 48.3983 124.105 48.3041 123.804 48.3041C123.601 48.3041 123.422 48.3476 123.267 48.4348C123.114 48.5219 122.994 48.649 122.907 48.8162C122.822 48.981 122.778 49.1799 122.776 49.413Z" fill="white"/>
<defs>
<linearGradient id="paint0_linear_463_18537" x1="36.2343" y1="33.1275" x2="19.8764" y2="42.9334" gradientUnits="userSpaceOnUse">
<stop offset="0.00166626" stop-color="#FA6A11"/>
<stop offset="0.386373" stop-color="#FA6A11"/>
<stop offset="0.49029" stop-color="#FF925D"/>
<stop offset="0.597863" stop-color="#FA6A11"/>
<stop offset="1" stop-color="#FA6A11"/>
</linearGradient>
<linearGradient id="paint1_linear_463_18537" x1="62.5394" y1="35.3892" x2="107.246" y2="12.3206" gradientUnits="userSpaceOnUse">
<stop stop-color="#FA6A11"/>
<stop offset="0.385" stop-color="#FA6A11"/>
<stop offset="0.51" stop-color="#FF945D"/>
<stop offset="0.61" stop-color="#FA6A11"/>
<stop offset="1" stop-color="#FA6A11"/>
</linearGradient>
</defs>
</svg>
