<svg width="128" height="65" viewBox="0 0 128 65" fill="none" xmlns="http://www.w3.org/2000/svg">
<g clip-path="url(#clip0_463_18532)">
<path d="M2.34977 16.3705H9.97621V47H2.34977V16.3705ZM15.9125 47.2886C15.0055 47.2886 14.2085 47.2061 13.5215 47.0412C12.8619 46.8763 12.2573 46.5878 11.7076 46.1755V40.9401H12.1611C12.7657 40.9401 13.1917 40.9126 13.439 40.8576C13.7139 40.7752 13.92 40.6103 14.0574 40.3629C14.1948 40.0606 14.2773 39.6209 14.3047 39.0438C14.3322 38.6315 14.346 37.7796 14.346 36.4879C14.346 35.1962 14.3322 34.3442 14.3047 33.932C14.2773 33.3274 14.1948 32.8876 14.0574 32.6128C13.9475 32.338 13.7413 32.1731 13.439 32.1181C13.0543 32.0632 12.6283 32.0357 12.1611 32.0357H11.7076V26.8002C12.2573 26.3605 12.8482 26.0719 13.4803 25.9345C14.1124 25.7696 14.9231 25.6872 15.9125 25.6872C18.1111 25.6872 19.6913 26.4842 20.6532 28.0782C21.6151 29.7271 22.0961 32.5578 22.0961 36.5703C22.0961 40.6103 21.6151 43.4273 20.6532 45.0212C20.1585 45.8182 19.5127 46.3954 18.7157 46.7527C17.9462 47.1099 17.0118 47.2886 15.9125 47.2886ZM32.0774 47.2886C29.604 47.2886 27.9413 46.5328 27.0893 45.0212C26.7046 44.3617 26.4435 43.5647 26.3061 42.6303C26.1687 41.6684 26.1 40.5003 26.1 39.1262V25.9757H33.7264V35.9107C33.7264 37.3673 33.7401 38.3292 33.7676 38.7964C33.8226 39.4835 33.905 39.9782 34.015 40.2805C34.1249 40.5828 34.3035 40.7752 34.5509 40.8576C34.7982 40.9126 35.238 40.9401 35.8701 40.9401H36.2823V46.0931C35.2105 46.8901 33.8089 47.2886 32.0774 47.2886ZM38.0137 25.9757H45.6402V47H38.0137V25.9757ZM49.8424 41.5172L58.5819 31.7883H50.3371V25.9757H68.0634V31.4585L54.1297 47H49.8424V41.5172ZM61.6325 41.1874H68.1459V47H56.4383L61.6325 41.1874ZM70.7504 25.9757H74.6255V25.5223C74.6255 23.1863 74.7904 21.4136 75.1202 20.2044C75.4499 18.9951 76.0546 18.1157 76.934 17.566C77.7585 17.0439 78.899 16.7141 80.3556 16.5767C81.8122 16.4393 84.1207 16.3705 87.2812 16.3705V21.6472C85.8521 21.6472 84.9177 21.661 84.478 21.6884C83.8184 21.7159 83.31 21.8121 82.9527 21.977C82.6229 22.1419 82.4306 22.3893 82.3756 22.719C82.2931 23.0488 82.2519 23.516 82.2519 24.1207V25.9757H87.2812V31.7883H70.7504V25.9757ZM74.6255 33.4373H82.2519V47H74.6255V33.4373ZM99.4543 25.9757H103.329V19.8746H110.956V25.9757H115.573V31.7883H99.4543V25.9757ZM103.329 33.4373H110.956V47H103.329V33.4373ZM116.89 40.2805H125.217V47H116.89V40.2805Z" fill="url(#paint0_linear_463_18532)"/>
<rect x="89.6846" y="25.4654" width="7.78456" height="21.1295" fill="url(#paint1_linear_463_18532)"/>
<rect x="89.6846" y="16.0125" width="7.78456" height="6.67248" fill="url(#paint2_linear_463_18532)"/>
</g>
<defs>
<linearGradient id="paint0_linear_463_18532" x1="2.54867" y1="15.3947" x2="102.214" y2="40.0288" gradientUnits="userSpaceOnUse">
<stop stop-color="#6BCB77"/>
<stop offset="1" stop-color="#46AA53"/>
</linearGradient>
<linearGradient id="paint1_linear_463_18532" x1="96" y1="41.0435" x2="89.7391" y2="33.3913" gradientUnits="userSpaceOnUse">
<stop stop-color="#47AB53"/>
<stop offset="1" stop-color="#5AB966"/>
</linearGradient>
<linearGradient id="paint2_linear_463_18532" x1="89.6846" y1="19.3487" x2="97.9765" y2="22.7586" gradientUnits="userSpaceOnUse">
<stop stop-color="#5EBE6A"/>
<stop offset="1" stop-color="#5BBA67"/>
</linearGradient>
<clipPath id="clip0_463_18532">
<rect width="128" height="65" fill="white"/>
</clipPath>
</defs>
</svg>
