<svg width="128" height="65" viewBox="0 0 128 65" fill="none" xmlns="http://www.w3.org/2000/svg">
<g clip-path="url(#clip0_463_18501)">
<g clip-path="url(#clip1_463_18501)">
<path d="M73.9252 42.451C73.7752 42.776 73.5876 43.0823 73.3626 43.3698C73.1376 43.6573 72.8751 43.9136 72.5751 44.1386C72.2876 44.3636 71.9688 44.5449 71.6188 44.6824C71.2813 44.8074 70.925 44.8699 70.55 44.8699C69.5625 44.8699 68.8499 44.6011 68.4124 44.0636C67.9874 43.5136 67.7749 42.7698 67.7749 41.8322V41.4947C67.5499 41.9197 67.2936 42.3448 67.0061 42.7698C66.7311 43.1948 66.4123 43.5761 66.0498 43.9136C65.6998 44.2511 65.306 44.5261 64.8685 44.7386C64.431 44.9511 63.9434 45.0574 63.4059 45.0574C62.5934 45.0574 61.8746 44.9011 61.2496 44.5886C60.6245 44.2761 60.0995 43.8573 59.6745 43.3323C59.2495 42.7948 58.9307 42.1698 58.7182 41.4572C58.5057 40.7447 58.3994 39.9884 58.3994 39.1884C58.3994 38.1008 58.587 37.0195 58.962 35.9445C59.3495 34.8569 59.887 33.8881 60.5745 33.0381C61.2746 32.1881 62.1059 31.5005 63.0684 30.9755C64.0435 30.438 65.1248 30.1692 66.3123 30.1692C66.7873 30.1692 67.2624 30.213 67.7374 30.3005C68.2124 30.388 68.6624 30.5317 69.0874 30.7317C69.525 30.9192 69.9187 31.1693 70.2687 31.4818C70.6313 31.7943 70.925 32.1756 71.15 32.6256L68.3562 33.8069C68.2061 33.5694 68.0311 33.3444 67.8311 33.1318C67.6436 32.9068 67.4311 32.7131 67.1936 32.5506C66.9686 32.3881 66.7248 32.2568 66.4623 32.1568C66.1998 32.0568 65.9248 32.0068 65.6373 32.0068C64.9872 32.0068 64.406 32.2068 63.8934 32.6068C63.3934 33.0068 62.9622 33.5006 62.5996 34.0881C62.2496 34.6757 61.9809 35.3007 61.7933 35.9632C61.6058 36.6258 61.5121 37.2258 61.5121 37.7633C61.5121 38.2383 61.5558 38.7759 61.6433 39.3759C61.7433 39.9634 61.9121 40.5197 62.1496 41.0447C62.3871 41.5697 62.6996 42.0135 63.0872 42.376C63.4747 42.7385 63.9622 42.9198 64.5497 42.9198C65.0122 42.9198 65.4123 42.8198 65.7498 42.6198C66.0873 42.4073 66.3748 42.1385 66.6123 41.8135C66.8498 41.476 67.0436 41.0947 67.1936 40.6697C67.3561 40.2322 67.4749 39.7884 67.5499 39.3384C67.6374 38.8884 67.6936 38.4446 67.7186 38.0071C67.7561 37.557 67.7749 37.157 67.7749 36.807V35.5132L71.1875 34.3132V41.926C71.1875 42.176 71.25 42.4073 71.375 42.6198C71.5 42.8198 71.6938 42.9198 71.9563 42.9198C72.2688 42.9198 72.5501 42.8073 72.8001 42.5823C73.0626 42.3448 73.2689 42.1073 73.4189 41.8697L73.9252 42.451ZM83.6186 42.4885C83.3311 43.1011 82.9998 43.5698 82.6248 43.8948C82.2498 44.2199 81.881 44.4574 81.5185 44.6074C81.106 44.7824 80.681 44.8824 80.2434 44.9074C79.6809 44.9074 79.2184 44.8199 78.8559 44.6449C78.5059 44.4699 78.2246 44.2386 78.0121 43.9511C77.8121 43.6636 77.6683 43.3386 77.5808 42.976C77.5058 42.6135 77.4683 42.2448 77.4683 41.8697V32.0443H75.4807L76.287 30.1692H77.4683V23.5314L80.8997 22.3314V30.1692H84.4624L83.6936 32.0443H80.8997V41.9635C80.8997 42.2635 80.9685 42.501 81.106 42.676C81.2435 42.851 81.4185 42.9448 81.631 42.9573C81.8435 42.9573 82.081 42.876 82.3435 42.7135C82.6061 42.551 82.8623 42.2885 83.1123 41.926L83.6186 42.4885ZM101.619 26.1865L99.0986 29.2317C98.8786 28.5716 98.5935 27.9416 98.2435 27.3416C97.8935 26.7415 97.4785 26.2165 96.9985 25.7665C96.5184 25.3165 95.9734 24.9565 95.3634 24.6865C94.7534 24.4164 94.0733 24.2814 93.3233 24.2814C92.7833 24.2814 92.2833 24.3814 91.8232 24.5815C91.3632 24.7715 90.9582 25.0415 90.6082 25.3915C90.2682 25.7315 89.9981 26.1365 89.7981 26.6065C89.6081 27.0766 89.5131 27.5816 89.5131 28.1216C89.5131 28.6816 89.6181 29.2067 89.8281 29.6967C90.0381 30.1867 90.3182 30.6317 90.6682 31.0317C91.0182 31.4218 91.4182 31.7618 91.8682 32.0518C92.3283 32.3418 92.8033 32.5668 93.2933 32.7268C93.7833 32.8968 94.2983 33.0868 94.8384 33.2969C95.3784 33.5069 95.9084 33.7519 96.4284 34.0319C96.9485 34.3119 97.4435 34.6269 97.9135 34.9769C98.3835 35.3169 98.7986 35.702 99.1586 36.132C99.5186 36.562 99.8036 37.042 100.014 37.572C100.224 38.0921 100.329 38.6621 100.329 39.2821C100.329 40.1822 100.129 40.9922 99.7286 41.7122C99.3386 42.4223 98.8236 43.0223 98.1835 43.5123C97.5435 44.0023 96.8085 44.3774 95.9784 44.6374C95.1584 44.8974 94.3233 45.0274 93.4733 45.0274C92.8933 45.0274 92.3033 44.9424 91.7032 44.7724C91.1132 44.6024 90.5432 44.3724 89.9931 44.0823C89.4531 43.7823 88.9431 43.4373 88.4631 43.0473C87.9931 42.6573 87.583 42.2373 87.233 41.7872L89.6631 38.9971C89.8131 39.4771 90.0731 39.9872 90.4432 40.5272C90.8232 41.0672 91.2632 41.5672 91.7632 42.0273C92.2632 42.4873 92.7983 42.8723 93.3683 43.1823C93.9483 43.4823 94.5084 43.6323 95.0484 43.6323C95.3584 43.6323 95.6784 43.5523 96.0084 43.3923C96.3384 43.2323 96.6385 43.0273 96.9085 42.7773C97.1885 42.5173 97.4185 42.2373 97.5985 41.9373C97.7785 41.6372 97.8685 41.3422 97.8685 41.0522C97.8685 40.6122 97.7785 40.1972 97.5985 39.8072C97.4185 39.4071 97.1785 39.0321 96.8785 38.6821C96.5884 38.3321 96.2484 38.0121 95.8584 37.7221C95.4784 37.422 95.0784 37.157 94.6584 36.927C94.2483 36.687 93.8333 36.482 93.4133 36.312C93.0033 36.132 92.6233 35.992 92.2733 35.892C91.5832 35.682 90.9082 35.3819 90.2482 34.9919C89.5981 34.6019 89.0181 34.1319 88.5081 33.5819C87.9981 33.0318 87.588 32.4168 87.278 31.7368C86.968 31.0467 86.813 30.3117 86.813 29.5317C86.813 28.8616 86.918 28.2266 87.128 27.6266C87.338 27.0266 87.628 26.4715 87.9981 25.9615C88.3681 25.4515 88.8031 24.9915 89.3031 24.5815C89.8031 24.1614 90.3432 23.8114 90.9232 23.5314C91.5032 23.2414 92.1082 23.0214 92.7383 22.8714C93.3683 22.7114 94.0033 22.6314 94.6434 22.6314C96.0434 22.6314 97.3435 22.9464 98.5435 23.5764C99.7436 24.1964 100.769 25.0665 101.619 26.1865ZM107.153 25.1065L106.358 30.5817L104.888 31.0467L103.988 26.1865L107.153 25.1065ZM109.223 42.9273C108.993 43.4173 108.723 43.7923 108.413 44.0523C108.113 44.3124 107.823 44.5024 107.543 44.6224C107.213 44.7624 106.878 44.8424 106.538 44.8624C106.098 44.8624 105.733 44.7924 105.443 44.6524C105.153 44.5124 104.923 44.3274 104.753 44.0973C104.583 43.8673 104.463 43.6073 104.393 43.3173C104.333 43.0273 104.303 42.7323 104.303 42.4323V34.0169L107.063 33.0718V42.5073C107.063 42.7473 107.118 42.9373 107.228 43.0773C107.338 43.2173 107.478 43.2923 107.648 43.3023C107.828 43.3023 108.018 43.2373 108.218 43.1073C108.428 42.9773 108.628 42.7673 108.818 42.4773L109.223 42.9273Z" fill="white"/>
<path d="M54.5004 21.7427C55.2747 23.1286 55.7626 24.6173 55.9643 26.2086C56.1707 27.7828 56.149 29.3844 55.8991 31.0132C55.6491 32.642 55.2001 34.2603 54.5518 35.8681C53.9145 37.4699 53.1362 38.9858 52.2167 40.4158C51.2973 41.8458 50.2659 43.1523 49.1225 44.3351C47.9792 45.518 46.7904 46.5043 45.5562 47.294L35.305 28.9435L38.0096 25.8647L47.9682 43.6913C49.257 42.3843 50.3051 40.9539 51.1125 39.4003C51.9247 37.8297 52.4715 36.2069 52.7529 34.5319C53.0343 32.8569 53.0322 31.1614 52.7464 29.4452C52.4716 27.7229 51.88 26.0488 50.9717 24.4227C50.4535 23.4951 49.8396 22.6782 49.1301 21.972C48.4254 21.2488 47.6507 20.7079 46.806 20.3493C45.9661 19.9736 45.0715 19.8076 44.1221 19.8511C43.1667 19.8837 42.176 20.1865 41.1502 20.7596C40.3099 21.229 39.5159 21.7943 38.7683 22.4553C38.0316 23.1103 37.354 23.8325 36.7354 24.6219C36.1217 25.3943 35.5718 26.217 35.0857 27.0899C34.6106 27.9568 34.2144 28.8367 33.8972 29.7299L33.0788 29.4568C33.3373 28.3817 33.7403 27.2831 34.2876 26.1612C34.8289 25.0283 35.476 23.9437 36.2287 22.9075C36.9754 21.8603 37.8073 20.9016 38.7244 20.0313C39.6354 19.1501 40.5929 18.4291 41.5969 17.8682C42.9501 17.1123 44.2524 16.6496 45.5038 16.4804C46.7552 16.3111 47.9265 16.4085 49.0177 16.7726C50.1198 17.1306 51.1296 17.7335 52.047 18.5813C52.9754 19.4229 53.7932 20.4767 54.5004 21.7427Z" fill="url(#paint0_linear_463_18501)"/>
<path d="M14.7594 34.9896C19.8584 22.0547 29.8147 22.0655 33.7589 24.4053C33.3428 25.2617 33.3428 25.2617 32.8876 26.4166C24.5289 25.3194 23.5934 31.6748 24.1705 34.9896L14.7594 34.9896Z" fill="white"/>
<g filter="url(#filter0_d_463_18501)">
<path d="M19.2757 38.955C19.2757 38.955 14.4583 44.2469 14.4583 47.991C14.4583 50.9448 16.3197 52.8048 19.2757 52.8048C22.2316 52.8048 24.093 50.9448 24.093 47.991C24.093 44.2469 19.2757 38.955 19.2757 38.955ZM19.8109 51.0665V50.2642C20.3431 50.2636 20.8533 50.052 21.2295 49.676C21.6058 49.3 21.8175 48.7902 21.8181 48.2584H22.621C22.6202 49.0029 22.3239 49.7167 21.7971 50.2431C21.2703 50.7696 20.556 51.0657 19.8109 51.0665Z" fill="url(#paint1_linear_463_18501)"/>
</g>
</g>
</g>
<defs>
<filter id="filter0_d_463_18501" x="13.6506" y="38.6857" width="11.25" height="15.4652" filterUnits="userSpaceOnUse" color-interpolation-filters="sRGB">
<feFlood flood-opacity="0" result="BackgroundImageFix"/>
<feColorMatrix in="SourceAlpha" type="matrix" values="0 0 0 0 0 0 0 0 0 0 0 0 0 0 0 0 0 0 127 0" result="hardAlpha"/>
<feOffset dy="0.538443"/>
<feGaussianBlur stdDeviation="0.403832"/>
<feComposite in2="hardAlpha" operator="out"/>
<feColorMatrix type="matrix" values="0 0 0 0 0 0 0 0 0 0 0 0 0 0 0 0 0 0 0.25 0"/>
<feBlend mode="normal" in2="BackgroundImageFix" result="effect1_dropShadow_463_18501"/>
<feBlend mode="normal" in="SourceGraphic" in2="effect1_dropShadow_463_18501" result="shape"/>
</filter>
<linearGradient id="paint0_linear_463_18501" x1="59.2923" y1="51.5676" x2="38.1422" y2="46.0366" gradientUnits="userSpaceOnUse">
<stop offset="0.536054" stop-color="#BE0606"/>
<stop offset="0.770601" stop-color="#FF8080"/>
<stop offset="0.962024" stop-color="#BE0606"/>
</linearGradient>
<linearGradient id="paint1_linear_463_18501" x1="14.7594" y1="44.0734" x2="24.9962" y2="47.3853" gradientUnits="userSpaceOnUse">
<stop offset="0.379785" stop-color="#FFAE00"/>
<stop offset="0.54908" stop-color="#FFD06A"/>
<stop offset="0.754286" stop-color="#FFAE00"/>
</linearGradient>
<clipPath id="clip0_463_18501">
<rect width="128" height="65" fill="white"/>
</clipPath>
<clipPath id="clip1_463_18501">
<rect width="107" height="64.9843" fill="white" transform="translate(10 -0.340314)"/>
</clipPath>
</defs>
</svg>
