<svg width="128" height="65" viewBox="0 0 128 65" fill="none" xmlns="http://www.w3.org/2000/svg">
<path d="M11.4629 12.5918C16.0172 12.5918 20.2269 14.0651 23.6436 16.5595L22.1562 19.1425L27.5566 24.5625L29.5938 23.3183C31.2185 26.2714 32.1435 29.6638 32.1436 33.2724C32.1436 44.6941 22.8845 53.9538 11.4629 53.9541H1V12.5918H11.4629ZM15.0664 32.0429C15.4923 32.6822 15.4233 33.5543 14.8584 34.1171C14.2934 34.6798 13.4209 34.7457 12.7832 34.3173L5.26758 41.8056C11.1038 38.9479 16.5143 38.3435 18.4902 38.3984C21.7075 30.1044 25.1661 26.3047 26.4932 25.4414L24.1006 23.041L15.0664 32.0429ZM21.2461 20.1757C20.378 21.4996 16.5661 24.9445 8.26074 28.1318C8.30852 30.108 7.68439 35.5161 4.80566 41.3418L12.3203 33.8535C11.8942 33.2141 11.9643 32.3412 12.5293 31.7783C13.0942 31.2157 13.9659 31.1508 14.6035 31.5791L23.6387 22.5761L21.2461 20.1757Z" fill="#CFFC5B"/>
<path d="M47.1626 27.9584C47.1626 28.4092 47.1034 28.844 46.9851 29.2629C46.8712 29.6772 46.7073 30.0665 46.4933 30.4307C46.2793 30.7904 46.0244 31.1205 45.7284 31.421C45.4325 31.717 45.1024 31.972 44.7381 32.186C44.3739 32.4 43.9823 32.5661 43.5634 32.6845C43.1491 32.7984 42.7165 32.8553 42.2658 32.8553H39.3154V23.0616H42.2658C42.7165 23.0616 43.1491 23.1208 43.5634 23.2391C43.9823 23.353 44.3739 23.5169 44.7381 23.7309C45.1024 23.9449 45.4325 24.2021 45.7284 24.5026C46.0244 24.7986 46.2793 25.1287 46.4933 25.4929C46.7073 25.8526 46.8712 26.2419 46.9851 26.6608C47.1034 27.0751 47.1626 27.5077 47.1626 27.9584ZM45.2025 27.9584C45.2025 27.5532 45.1251 27.173 44.9703 26.8179C44.8201 26.4627 44.6106 26.1531 44.342 25.889C44.0779 25.6204 43.766 25.4087 43.4063 25.2539C43.0512 25.0991 42.671 25.0217 42.2658 25.0217H41.2891V30.8952H42.2658C42.671 30.8952 43.0512 30.82 43.4063 30.6698C43.766 30.515 44.0779 30.3055 44.342 30.0415C44.6106 29.7728 44.8201 29.4609 44.9703 29.1058C45.1251 28.7461 45.2025 28.3636 45.2025 27.9584ZM51.1785 31.0659C51.2513 31.0887 51.3242 31.1046 51.397 31.1137C51.4699 31.1183 51.5427 31.1205 51.6156 31.1205C51.7977 31.1205 51.973 31.0955 52.1414 31.0454C52.3099 30.9953 52.467 30.9248 52.6127 30.8337C52.7629 30.7381 52.895 30.6243 53.0088 30.4922C53.1272 30.3556 53.2228 30.2054 53.2956 30.0415L54.6616 31.4142C54.4886 31.6601 54.2882 31.8809 54.0606 32.0767C53.8375 32.2725 53.5939 32.4387 53.3298 32.5752C53.0703 32.7118 52.7948 32.8143 52.5034 32.8826C52.2166 32.9554 51.9206 32.9919 51.6156 32.9919C51.1011 32.9919 50.6162 32.8962 50.1608 32.705C49.7101 32.5138 49.314 32.2474 48.9725 31.9059C48.6356 31.5645 48.3692 31.1592 48.1734 30.6903C47.9776 30.2167 47.8797 29.6977 47.8797 29.1331C47.8797 28.5549 47.9776 28.0267 48.1734 27.5486C48.3692 27.0706 48.6356 26.6631 48.9725 26.3261C49.314 25.9892 49.7101 25.7274 50.1608 25.5407C50.6162 25.354 51.1011 25.2607 51.6156 25.2607C51.9206 25.2607 52.2188 25.2971 52.5102 25.37C52.8016 25.4428 53.0771 25.5476 53.3366 25.6841C53.6007 25.8207 53.8466 25.9892 54.0742 26.1895C54.3019 26.3853 54.5022 26.6061 54.6752 26.852L51.1785 31.0659ZM52.1346 27.2208C52.0481 27.1889 51.9616 27.1685 51.8751 27.1593C51.7931 27.1502 51.7066 27.1457 51.6156 27.1457C51.3606 27.1457 51.1193 27.1935 50.8916 27.2891C50.6685 27.3802 50.4727 27.5122 50.3043 27.6852C50.1404 27.8582 50.0106 28.0677 49.915 28.3136C49.8194 28.5549 49.7716 28.8281 49.7716 29.1331C49.7716 29.2014 49.7738 29.2788 49.7784 29.3653C49.7875 29.4518 49.7989 29.5406 49.8125 29.6317C49.8307 29.7182 49.8512 29.8024 49.874 29.8844C49.8968 29.9663 49.9264 30.0392 49.9628 30.1029L52.1346 27.2208ZM59.6336 32.8553H55.3719V30.9976H59.6336C59.761 30.9976 59.8703 30.9521 59.9614 30.861C60.0524 30.7699 60.098 30.6607 60.098 30.5332C60.098 30.4011 60.0524 30.3146 59.9614 30.2737C59.8703 30.2327 59.761 30.2122 59.6336 30.2122H57.6939C57.3707 30.2122 57.0679 30.1507 56.7856 30.0278C56.5033 29.9049 56.2574 29.7387 56.048 29.5292C55.8386 29.3152 55.6724 29.0671 55.5494 28.7848C55.431 28.5025 55.3719 28.1997 55.3719 27.8765C55.3719 27.5532 55.431 27.2504 55.5494 26.9681C55.6724 26.6858 55.8386 26.44 56.048 26.2305C56.2574 26.0211 56.5033 25.8572 56.7856 25.7388C57.0679 25.6159 57.3707 25.5544 57.6939 25.5544H61.4707V27.412H57.6939C57.5664 27.412 57.4572 27.4576 57.3661 27.5486C57.2751 27.6397 57.2295 27.749 57.2295 27.8765C57.2295 28.0085 57.2751 28.1223 57.3661 28.2179C57.4572 28.309 57.5664 28.3545 57.6939 28.3545H59.6336C59.9523 28.3545 60.2528 28.4092 60.5351 28.5184C60.8174 28.6232 61.0632 28.7711 61.2727 28.9624C61.4821 29.1536 61.6483 29.3835 61.7712 29.6522C61.8942 29.9208 61.9556 30.2145 61.9556 30.5332C61.9556 30.8565 61.8942 31.1592 61.7712 31.4415C61.6483 31.7193 61.4821 31.9651 61.2727 32.1791C61.0632 32.3886 60.8174 32.5548 60.5351 32.6777C60.2528 32.7961 59.9523 32.8553 59.6336 32.8553ZM65.1519 23.5533C65.1519 23.7263 65.1177 23.888 65.0495 24.0382C64.9857 24.1885 64.8969 24.3205 64.7831 24.4343C64.6693 24.5436 64.535 24.6324 64.3801 24.7007C64.2299 24.7644 64.0683 24.7963 63.8952 24.7963C63.7222 24.7963 63.5583 24.7644 63.4035 24.7007C63.2533 24.6324 63.1212 24.5436 63.0074 24.4343C62.8981 24.3205 62.8093 24.1885 62.741 24.0382C62.6773 23.888 62.6454 23.7263 62.6454 23.5533C62.6454 23.3848 62.6773 23.2255 62.741 23.0752C62.8093 22.9204 62.8981 22.7884 63.0074 22.6791C63.1212 22.5653 63.2533 22.4765 63.4035 22.4128C63.5583 22.3445 63.7222 22.3103 63.8952 22.3103C64.0683 22.3103 64.2299 22.3445 64.3801 22.4128C64.535 22.4765 64.6693 22.5653 64.7831 22.6791C64.8969 22.7884 64.9857 22.9204 65.0495 23.0752C65.1177 23.2255 65.1519 23.3848 65.1519 23.5533ZM64.8309 32.8553H62.9528V25.5407H64.8309V32.8553ZM71.4625 29.1331C71.4625 28.8781 71.4124 28.6323 71.3122 28.3955C71.2166 28.1542 71.0846 27.9425 70.9161 27.7604C70.7476 27.5737 70.5496 27.4257 70.3219 27.3164C70.0988 27.2026 69.8598 27.1457 69.6048 27.1457C69.3498 27.1457 69.1085 27.1889 68.8809 27.2755C68.6578 27.362 68.462 27.4894 68.2935 27.6579C68.1296 27.8264 67.9999 28.0358 67.9042 28.2862C67.8086 28.5321 67.7608 28.8144 67.7608 29.1331C67.7608 29.4382 67.8086 29.7136 67.9042 29.9595C67.9999 30.2008 68.1296 30.408 68.2935 30.581C68.462 30.754 68.6578 30.8883 68.8809 30.9839C69.1085 31.075 69.3498 31.1205 69.6048 31.1205C69.8598 31.1205 70.0988 31.0659 70.3219 30.9566C70.5496 30.8428 70.7476 30.6948 70.9161 30.5127C71.0846 30.326 71.2166 30.1143 71.3122 29.8775C71.4124 29.6362 71.4625 29.3881 71.4625 29.1331ZM73.3406 31.9333C73.3406 32.4478 73.2427 32.9304 73.047 33.3811C72.8512 33.8319 72.5825 34.2257 72.2411 34.5627C71.9041 34.8996 71.508 35.166 71.0527 35.3617C70.6019 35.5575 70.1193 35.6554 69.6048 35.6554L68.6692 35.6418V33.7773L69.5912 33.7909C69.8826 33.7909 70.1307 33.7522 70.3356 33.6748C70.5405 33.602 70.7135 33.4995 70.8546 33.3675C70.9958 33.24 71.1073 33.092 71.1893 32.9236C71.2758 32.7551 71.3441 32.5775 71.3942 32.3908C71.3213 32.5092 71.2166 32.6071 71.08 32.6845C70.9434 32.7574 70.7909 32.8166 70.6224 32.8621C70.4585 32.9122 70.2855 32.9463 70.1034 32.9645C69.9258 32.9828 69.7596 32.9919 69.6048 32.9919C69.0903 32.9919 68.6054 32.9031 68.1501 32.7255C67.6994 32.5479 67.3032 32.2952 66.9618 31.9674C66.6248 31.635 66.3585 31.2298 66.1627 30.7517C65.9669 30.2737 65.869 29.7341 65.869 29.1331C65.869 28.5822 65.9669 28.07 66.1627 27.5964C66.3585 27.1229 66.6248 26.7131 66.9618 26.3671C67.3032 26.0211 67.6994 25.7502 68.1501 25.5544C68.6054 25.3586 69.0903 25.2607 69.6048 25.2607C69.8416 25.2607 70.0761 25.2903 70.3083 25.3495C70.5405 25.4087 70.7659 25.4906 70.9844 25.5954C71.203 25.7001 71.4101 25.823 71.6059 25.9642C71.8062 26.1053 71.9929 26.2578 72.1659 26.4217L72.8899 25.5544H73.3406V31.9333ZM76.6325 32.8553H74.768V25.5407H75.2188L75.8334 26.251C76.134 25.9778 76.4732 25.7684 76.8511 25.6227C77.2335 25.4724 77.6319 25.3973 78.0463 25.3973C78.4925 25.3973 78.9136 25.4838 79.3097 25.6568C79.7059 25.8253 80.0519 26.0598 80.3478 26.3603C80.6438 26.6562 80.876 27.0045 81.0445 27.4052C81.2175 27.8013 81.304 28.2248 81.304 28.6755V32.8553H79.4395V28.6755C79.4395 28.4843 79.4031 28.3045 79.3302 28.136C79.2574 27.963 79.1572 27.8127 79.0297 27.6852C78.9022 27.5577 78.7543 27.4576 78.5858 27.3847C78.4173 27.3119 78.2375 27.2755 78.0463 27.2755C77.8505 27.2755 77.6661 27.3119 77.493 27.3847C77.32 27.4576 77.1698 27.5577 77.0423 27.6852C76.9148 27.8127 76.8146 27.963 76.7418 28.136C76.6689 28.3045 76.6325 28.4843 76.6325 28.6755V32.8553Z" fill="#CFFC5B"/>
<path d="M88.7141 32.8553H86.754V23.0616H88.7141V26.9818H92.6275V23.0616H94.5876V32.8553H92.6275V28.9419H88.7141V32.8553ZM103.172 29.1331C103.172 29.6795 103.075 30.1894 102.879 30.663C102.683 31.1319 102.417 31.5394 102.08 31.8855C101.743 32.2269 101.347 32.4978 100.891 32.6982C100.441 32.894 99.9557 32.9919 99.4367 32.9919C98.9222 32.9919 98.4373 32.894 97.982 32.6982C97.5312 32.4978 97.1351 32.2269 96.7936 31.8855C96.4567 31.5394 96.1903 31.1319 95.9945 30.663C95.7987 30.1894 95.7009 29.6795 95.7009 29.1331C95.7009 28.5776 95.7987 28.0631 95.9945 27.5896C96.1903 27.1161 96.4567 26.7086 96.7936 26.3671C97.1351 26.0211 97.5312 25.7502 97.982 25.5544C98.4373 25.3586 98.9222 25.2607 99.4367 25.2607C99.9557 25.2607 100.441 25.354 100.891 25.5407C101.347 25.7228 101.743 25.9847 102.08 26.3261C102.417 26.6631 102.683 27.0706 102.879 27.5486C103.075 28.0222 103.172 28.5503 103.172 29.1331ZM101.294 29.1331C101.294 28.8326 101.244 28.5617 101.144 28.3204C101.048 28.0745 100.916 27.8651 100.748 27.6921C100.579 27.5145 100.381 27.3802 100.154 27.2891C99.9307 27.1935 99.6916 27.1457 99.4367 27.1457C99.1817 27.1457 98.9404 27.1935 98.7127 27.2891C98.4896 27.3802 98.2938 27.5145 98.1254 27.6921C97.9615 27.8651 97.8317 28.0745 97.7361 28.3204C97.6405 28.5617 97.5927 28.8326 97.5927 29.1331C97.5927 29.4154 97.6405 29.6772 97.7361 29.9185C97.8317 30.1598 97.9615 30.3693 98.1254 30.5468C98.2938 30.7244 98.4896 30.8656 98.7127 30.9703C98.9404 31.0705 99.1817 31.1205 99.4367 31.1205C99.6916 31.1205 99.9307 31.0727 100.154 30.9771C100.381 30.8815 100.579 30.7472 100.748 30.5742C100.916 30.4011 101.048 30.1917 101.144 29.9458C101.244 29.7 101.294 29.4291 101.294 29.1331ZM109.579 32.0016C109.428 32.1382 109.267 32.2679 109.094 32.3908C108.925 32.5092 108.748 32.614 108.561 32.705C108.374 32.7915 108.181 32.8598 107.981 32.9099C107.785 32.9645 107.584 32.9919 107.38 32.9919C106.929 32.9919 106.505 32.9122 106.109 32.7528C105.713 32.5935 105.365 32.3681 105.064 32.0767C104.768 31.7807 104.534 31.4233 104.361 31.0044C104.192 30.581 104.108 30.1075 104.108 29.5839V25.5407H105.966V29.5839C105.966 29.8297 106.002 30.0506 106.075 30.2463C106.152 30.4376 106.255 30.5992 106.382 30.7312C106.51 30.8633 106.658 30.9635 106.826 31.0318C106.999 31.1 107.184 31.1342 107.38 31.1342C107.571 31.1342 107.751 31.0909 107.919 31.0044C108.092 30.9134 108.242 30.795 108.37 30.6493C108.497 30.5036 108.597 30.3397 108.67 30.1576C108.743 29.9709 108.78 29.7797 108.78 29.5839V25.5407H110.644V32.8553H110.193L109.579 32.0016ZM116.087 32.8553H111.826V30.9976H116.087C116.215 30.9976 116.324 30.9521 116.415 30.861C116.506 30.7699 116.552 30.6607 116.552 30.5332C116.552 30.4011 116.506 30.3146 116.415 30.2737C116.324 30.2327 116.215 30.2122 116.087 30.2122H114.148C113.824 30.2122 113.522 30.1507 113.239 30.0278C112.957 29.9049 112.711 29.7387 112.502 29.5292C112.292 29.3152 112.126 29.0671 112.003 28.7848C111.885 28.5025 111.826 28.1997 111.826 27.8765C111.826 27.5532 111.885 27.2504 112.003 26.9681C112.126 26.6858 112.292 26.44 112.502 26.2305C112.711 26.0211 112.957 25.8572 113.239 25.7388C113.522 25.6159 113.824 25.5544 114.148 25.5544H117.924V27.412H114.148C114.02 27.412 113.911 27.4576 113.82 27.5486C113.729 27.6397 113.683 27.749 113.683 27.8765C113.683 28.0085 113.729 28.1223 113.82 28.2179C113.911 28.309 114.02 28.3545 114.148 28.3545H116.087C116.406 28.3545 116.707 28.4092 116.989 28.5184C117.271 28.6232 117.517 28.7711 117.726 28.9624C117.936 29.1536 118.102 29.3835 118.225 29.6522C118.348 29.9208 118.409 30.2145 118.409 30.5332C118.409 30.8565 118.348 31.1592 118.225 31.4415C118.102 31.7193 117.936 31.9651 117.726 32.1791C117.517 32.3886 117.271 32.5548 116.989 32.6777C116.707 32.7961 116.406 32.8553 116.087 32.8553ZM122.316 31.0659C122.389 31.0887 122.462 31.1046 122.534 31.1137C122.607 31.1183 122.68 31.1205 122.753 31.1205C122.935 31.1205 123.11 31.0955 123.279 31.0454C123.447 30.9953 123.604 30.9248 123.75 30.8337C123.9 30.7381 124.032 30.6243 124.146 30.4922C124.265 30.3556 124.36 30.2054 124.433 30.0415L125.799 31.4142C125.626 31.6601 125.426 31.8809 125.198 32.0767C124.975 32.2725 124.731 32.4387 124.467 32.5752C124.208 32.7118 123.932 32.8143 123.641 32.8826C123.354 32.9554 123.058 32.9919 122.753 32.9919C122.239 32.9919 121.754 32.8962 121.298 32.705C120.848 32.5138 120.451 32.2474 120.11 31.9059C119.773 31.5645 119.507 31.1592 119.311 30.6903C119.115 30.2167 119.017 29.6977 119.017 29.1331C119.017 28.5549 119.115 28.0267 119.311 27.5486C119.507 27.0706 119.773 26.6631 120.11 26.3261C120.451 25.9892 120.848 25.7274 121.298 25.5407C121.754 25.354 122.239 25.2607 122.753 25.2607C123.058 25.2607 123.356 25.2971 123.648 25.37C123.939 25.4428 124.215 25.5476 124.474 25.6841C124.738 25.8207 124.984 25.9892 125.212 26.1895C125.439 26.3853 125.64 26.6061 125.813 26.852L122.316 31.0659ZM123.272 27.2208C123.186 27.1889 123.099 27.1685 123.013 27.1593C122.931 27.1502 122.844 27.1457 122.753 27.1457C122.498 27.1457 122.257 27.1935 122.029 27.2891C121.806 27.3802 121.61 27.5122 121.442 27.6852C121.278 27.8582 121.148 28.0677 121.052 28.3136C120.957 28.5549 120.909 28.8281 120.909 29.1331C120.909 29.2014 120.911 29.2788 120.916 29.3653C120.925 29.4518 120.936 29.5406 120.95 29.6317C120.968 29.7182 120.989 29.8024 121.011 29.8844C121.034 29.9663 121.064 30.0392 121.1 30.1029L123.272 27.2208Z" fill="white"/>
<path d="M43.4297 41.9404H42.7727C42.7339 41.7514 42.6659 41.5854 42.5688 41.4424C42.4734 41.2993 42.3568 41.1792 42.2191 41.0821C42.0831 40.9832 41.9321 40.909 41.7661 40.8596C41.6001 40.8101 41.427 40.7854 41.2469 40.7854C40.9184 40.7854 40.6208 40.8684 40.3541 41.0344C40.0892 41.2004 39.8782 41.445 39.721 41.7682C39.5656 42.0914 39.4879 42.4879 39.4879 42.9577C39.4879 43.4274 39.5656 43.8239 39.721 44.1471C39.8782 44.4703 40.0892 44.7149 40.3541 44.8809C40.6208 45.0469 40.9184 45.1299 41.2469 45.1299C41.427 45.1299 41.6001 45.1052 41.7661 45.0557C41.9321 45.0063 42.0831 44.933 42.2191 44.8358C42.3568 44.7369 42.4734 44.616 42.5688 44.4729C42.6659 44.3281 42.7339 44.1621 42.7727 43.9749H43.4297C43.3803 44.2522 43.2902 44.5003 43.1595 44.7193C43.0288 44.9383 42.8663 45.1246 42.6721 45.2782C42.4778 45.4301 42.2597 45.5458 42.0178 45.6253C41.7776 45.7047 41.5206 45.7445 41.2469 45.7445C40.7842 45.7445 40.3727 45.6315 40.0124 45.4054C39.6521 45.1793 39.3687 44.8579 39.1621 44.4411C38.9554 44.0243 38.8521 43.5299 38.8521 42.9577C38.8521 42.3855 38.9554 41.891 39.1621 41.4742C39.3687 41.0574 39.6521 40.736 40.0124 40.5099C40.3727 40.2839 40.7842 40.1708 41.2469 40.1708C41.5206 40.1708 41.7776 40.2106 42.0178 40.29C42.2597 40.3695 42.4778 40.4861 42.6721 40.6397C42.8663 40.7916 43.0288 40.977 43.1595 41.196C43.2902 41.4132 43.3803 41.6614 43.4297 41.9404ZM46.7937 45.6703V41.6013H47.3977V42.2159H47.4401C47.5142 42.0146 47.6485 41.8512 47.8427 41.7258C48.037 41.6004 48.256 41.5378 48.4997 41.5378C48.5456 41.5378 48.603 41.5386 48.6719 41.5404C48.7408 41.5422 48.7929 41.5448 48.8282 41.5483V42.1841C48.807 42.1788 48.7584 42.1709 48.6825 42.1603C48.6083 42.1479 48.5297 42.1417 48.4467 42.1417C48.2489 42.1417 48.0723 42.1832 47.9169 42.2662C47.7632 42.3475 47.6414 42.4605 47.5513 42.6053C47.463 42.7484 47.4189 42.9117 47.4189 43.0954V45.6703H46.7937ZM53.5385 45.7551C53.1465 45.7551 52.8083 45.6685 52.5239 45.4955C52.2414 45.3206 52.0233 45.0769 51.8696 44.7643C51.7177 44.45 51.6418 44.0844 51.6418 43.6676C51.6418 43.2508 51.7177 42.8835 51.8696 42.5656C52.0233 42.2459 52.237 41.9969 52.5107 41.8186C52.7862 41.6384 53.1076 41.5483 53.475 41.5483C53.6869 41.5483 53.8962 41.5837 54.1028 41.6543C54.3094 41.725 54.4975 41.8397 54.667 41.9987C54.8366 42.1559 54.9717 42.3643 55.0724 42.6239C55.173 42.8835 55.2233 43.2031 55.2233 43.5828V43.8477H52.0868V43.3073H54.5876C54.5876 43.0777 54.5417 42.8729 54.4498 42.6927C54.3598 42.5126 54.2308 42.3704 54.0631 42.2662C53.897 42.1621 53.701 42.11 53.475 42.11C53.2259 42.11 53.0105 42.1718 52.8286 42.2954C52.6485 42.4172 52.5098 42.5762 52.4127 42.7722C52.3156 42.9683 52.267 43.1784 52.267 43.4027V43.763C52.267 44.0703 52.32 44.3308 52.4259 44.5444C52.5337 44.7564 52.6829 44.918 52.8736 45.0292C53.0644 45.1387 53.286 45.1935 53.5385 45.1935C53.7028 45.1935 53.8511 45.1705 53.9836 45.1246C54.1178 45.0769 54.2335 45.0063 54.3306 44.9127C54.4277 44.8173 54.5028 44.699 54.5558 44.5577L55.1598 44.7272C55.0962 44.9321 54.9893 45.1122 54.8392 45.2676C54.6891 45.4213 54.5037 45.5414 54.2829 45.6279C54.0622 45.7127 53.814 45.7551 53.5385 45.7551ZM59.7589 45.7657C59.501 45.7657 59.267 45.7171 59.0569 45.62C58.8467 45.5211 58.6798 45.3789 58.5562 45.1935C58.4326 45.0063 58.3708 44.7802 58.3708 44.5153C58.3708 44.2822 58.4167 44.0932 58.5085 43.9484C58.6003 43.8018 58.7231 43.687 58.8767 43.604C59.0304 43.521 59.1999 43.4592 59.3854 43.4186C59.5726 43.3762 59.7606 43.3427 59.9496 43.3179C60.1969 43.2861 60.3973 43.2623 60.5509 43.2464C60.7064 43.2287 60.8194 43.1996 60.89 43.159C60.9624 43.1184 60.9986 43.0477 60.9986 42.9471V42.9259C60.9986 42.6645 60.9271 42.4614 60.7841 42.3166C60.6428 42.1718 60.4282 42.0994 60.1403 42.0994C59.8419 42.0994 59.6079 42.1647 59.4383 42.2954C59.2688 42.4261 59.1496 42.5656 59.0807 42.7139L58.4873 42.502C58.5933 42.2548 58.7346 42.0623 58.9112 41.9245C59.0895 41.785 59.2838 41.6879 59.494 41.6331C59.7059 41.5766 59.9143 41.5483 60.1191 41.5483C60.2498 41.5483 60.4 41.5642 60.5695 41.596C60.7408 41.6261 60.9059 41.6887 61.0649 41.7841C61.2256 41.8795 61.3589 42.0234 61.4649 42.2159C61.5708 42.4084 61.6238 42.6663 61.6238 42.9894V45.6703H60.9986V45.1193H60.9669C60.9245 45.2076 60.8538 45.3021 60.7549 45.4027C60.656 45.5034 60.5245 45.5891 60.3602 45.6597C60.196 45.7303 59.9955 45.7657 59.7589 45.7657ZM59.8542 45.2041C60.1015 45.2041 60.3099 45.1555 60.4794 45.0584C60.6507 44.9612 60.7797 44.8358 60.8662 44.6822C60.9545 44.5286 60.9986 44.367 60.9986 44.1974V43.6252C60.9721 43.657 60.9139 43.6861 60.8238 43.7126C60.7355 43.7374 60.6331 43.7594 60.5165 43.7789C60.4017 43.7965 60.2896 43.8124 60.1801 43.8266C60.0723 43.8389 59.9849 43.8495 59.9178 43.8583C59.7553 43.8795 59.6035 43.914 59.4622 43.9617C59.3227 44.0076 59.2096 44.0773 59.1231 44.1709C59.0383 44.2628 58.9959 44.3882 58.9959 44.5471C58.9959 44.7643 59.0763 44.9286 59.237 45.0398C59.3995 45.1493 59.6052 45.2041 59.8542 45.2041ZM66.9216 41.6013V42.1311H64.813V41.6013H66.9216ZM65.4275 40.6265H66.0527V44.5047C66.0527 44.6813 66.0783 44.8138 66.1295 44.9021C66.1825 44.9886 66.2496 45.0469 66.3309 45.0769C66.4139 45.1052 66.5013 45.1193 66.5931 45.1193C66.662 45.1193 66.7185 45.1158 66.7627 45.1087C66.8068 45.0999 66.8421 45.0928 66.8686 45.0875L66.9958 45.6491C66.9534 45.665 66.8942 45.6809 66.8183 45.6968C66.7424 45.7145 66.6461 45.7233 66.5296 45.7233C66.353 45.7233 66.1799 45.6853 66.0103 45.6094C65.8426 45.5334 65.703 45.4178 65.5918 45.2623C65.4823 45.1069 65.4275 44.9109 65.4275 44.6743V40.6265ZM70.2492 45.6703V41.6013H70.8743V45.6703H70.2492ZM70.5671 40.9232C70.4452 40.9232 70.3401 40.8817 70.2518 40.7987C70.1653 40.7157 70.122 40.6159 70.122 40.4993C70.122 40.3828 70.1653 40.283 70.2518 40.2C70.3401 40.117 70.4452 40.0755 70.5671 40.0755C70.6889 40.0755 70.7931 40.117 70.8796 40.2C70.968 40.283 71.0121 40.3828 71.0121 40.4993C71.0121 40.6159 70.968 40.7157 70.8796 40.7987C70.7931 40.8817 70.6889 40.9232 70.5671 40.9232ZM77.7338 41.6013L76.2291 45.6703H75.5933L74.0887 41.6013H74.7668L75.89 44.8438H75.9324L77.0556 41.6013H77.7338ZM82.5064 45.7551C82.1143 45.7551 81.7761 45.6685 81.4918 45.4955C81.2092 45.3206 80.9911 45.0769 80.8375 44.7643C80.6856 44.45 80.6097 44.0844 80.6097 43.6676C80.6097 43.2508 80.6856 42.8835 80.8375 42.5656C80.9911 42.2459 81.2048 41.9969 81.4786 41.8186C81.7541 41.6384 82.0755 41.5483 82.4428 41.5483C82.6547 41.5483 82.864 41.5837 83.0706 41.6543C83.2773 41.725 83.4654 41.8397 83.6349 41.9987C83.8044 42.1559 83.9395 42.3643 84.0402 42.6239C84.1409 42.8835 84.1912 43.2031 84.1912 43.5828V43.8477H81.0547V43.3073H83.5554C83.5554 43.0777 83.5095 42.8729 83.4177 42.6927C83.3276 42.5126 83.1987 42.3704 83.0309 42.2662C82.8649 42.1621 82.6689 42.11 82.4428 42.11C82.1938 42.11 81.9783 42.1718 81.7964 42.2954C81.6163 42.4172 81.4777 42.5762 81.3805 42.7722C81.2834 42.9683 81.2348 43.1784 81.2348 43.4027V43.763C81.2348 44.0703 81.2878 44.3308 81.3938 44.5444C81.5015 44.7564 81.6507 44.918 81.8415 45.0292C82.0322 45.1387 82.2538 45.1935 82.5064 45.1935C82.6706 45.1935 82.819 45.1705 82.9514 45.1246C83.0857 45.0769 83.2013 45.0063 83.2985 44.9127C83.3956 44.8173 83.4707 44.699 83.5236 44.5577L84.1276 44.7272C84.064 44.9321 83.9572 45.1122 83.8071 45.2676C83.657 45.4213 83.4715 45.5414 83.2508 45.6279C83.03 45.7127 82.7819 45.7551 82.5064 45.7551ZM95.0663 41.6013C95.0345 41.3329 94.9056 41.1245 94.6795 40.9761C94.4535 40.8278 94.1762 40.7536 93.8477 40.7536C93.6075 40.7536 93.3974 40.7925 93.2172 40.8702C93.0389 40.9479 92.8993 41.0547 92.7987 41.1907C92.6998 41.3267 92.6503 41.4812 92.6503 41.6543C92.6503 41.7991 92.6848 41.9236 92.7536 42.0278C92.8243 42.1303 92.9143 42.2159 93.0238 42.2848C93.1333 42.3519 93.2481 42.4075 93.3682 42.4517C93.4883 42.4941 93.5987 42.5285 93.6994 42.555L94.2504 42.7033C94.3916 42.7404 94.5488 42.7916 94.7219 42.857C94.8967 42.9223 95.0636 43.0115 95.2226 43.1245C95.3833 43.2358 95.5157 43.3789 95.6199 43.5537C95.7241 43.7285 95.7762 43.9431 95.7762 44.1974C95.7762 44.4906 95.6994 44.7555 95.5458 44.9921C95.3939 45.2288 95.1714 45.4169 94.8782 45.5564C94.5868 45.6959 94.2327 45.7657 93.8159 45.7657C93.4274 45.7657 93.0909 45.703 92.8066 45.5776C92.524 45.4522 92.3015 45.2774 92.1391 45.0531C91.9783 44.8288 91.8874 44.5683 91.8662 44.2716H92.5444C92.562 44.4765 92.6309 44.646 92.751 44.7802C92.8728 44.9127 93.0265 45.0116 93.2119 45.0769C93.3991 45.1405 93.6005 45.1723 93.8159 45.1723C94.0667 45.1723 94.2919 45.1317 94.4914 45.0504C94.691 44.9674 94.849 44.8526 94.9656 44.706C95.0822 44.5577 95.1404 44.3846 95.1404 44.1868C95.1404 44.0067 95.0901 43.8601 94.9895 43.7471C94.8888 43.6341 94.7563 43.5422 94.5921 43.4716C94.4278 43.4009 94.2504 43.3391 94.0596 43.2861L93.3921 43.0954C92.9682 42.9735 92.6327 42.7996 92.3854 42.5735C92.1382 42.3475 92.0145 42.0517 92.0145 41.6861C92.0145 41.3823 92.0967 41.1174 92.2609 40.8914C92.4269 40.6636 92.6494 40.487 92.9285 40.3616C93.2093 40.2344 93.5227 40.1708 93.8689 40.1708C94.2186 40.1708 94.5294 40.2335 94.8014 40.3589C95.0733 40.4825 95.2888 40.6521 95.4477 40.8675C95.6084 41.083 95.6932 41.3276 95.7021 41.6013H95.0663ZM100.928 41.6013V42.1311H98.8197V41.6013H100.928ZM99.4342 40.6265H100.059V44.5047C100.059 44.6813 100.085 44.8138 100.136 44.9021C100.189 44.9886 100.256 45.0469 100.338 45.0769C100.421 45.1052 100.508 45.1193 100.6 45.1193C100.669 45.1193 100.725 45.1158 100.769 45.1087C100.814 45.0999 100.849 45.0928 100.875 45.0875L101.002 45.6491C100.96 45.665 100.901 45.6809 100.825 45.6968C100.749 45.7145 100.653 45.7233 100.536 45.7233C100.36 45.7233 100.187 45.6853 100.017 45.6094C99.8493 45.5334 99.7098 45.4178 99.5985 45.2623C99.489 45.1069 99.4342 44.9109 99.4342 44.6743V40.6265ZM106.82 44.0067V41.6013H107.445V45.6703H106.82V44.9815H106.778C106.682 45.1882 106.534 45.3639 106.333 45.5087C106.131 45.6518 105.877 45.7233 105.57 45.7233C105.315 45.7233 105.089 45.6677 104.892 45.5564C104.694 45.4434 104.538 45.2738 104.425 45.0478C104.312 44.82 104.256 44.533 104.256 44.1868V41.6013H104.881V44.1444C104.881 44.4411 104.964 44.6778 105.13 44.8544C105.298 45.031 105.512 45.1193 105.771 45.1193C105.927 45.1193 106.085 45.0796 106.245 45.0001C106.408 44.9206 106.544 44.7988 106.653 44.6345C106.765 44.4703 106.82 44.261 106.82 44.0067ZM112.514 45.7551C112.175 45.7551 111.876 45.6694 111.616 45.4981C111.356 45.325 111.153 45.0813 111.007 44.767C110.86 44.4508 110.787 44.0773 110.787 43.6464C110.787 43.219 110.86 42.8482 111.007 42.5338C111.153 42.2194 111.357 41.9766 111.619 41.8053C111.88 41.634 112.182 41.5483 112.525 41.5483C112.79 41.5483 112.999 41.5925 113.152 41.6808C113.308 41.7673 113.426 41.8662 113.507 41.9775C113.59 42.087 113.655 42.1771 113.701 42.2477H113.754V40.245H114.379V45.6703H113.775V45.0451H113.701C113.655 45.1193 113.59 45.2129 113.505 45.3259C113.42 45.4372 113.299 45.537 113.142 45.6253C112.985 45.7118 112.775 45.7551 112.514 45.7551ZM112.599 45.1935C112.85 45.1935 113.061 45.1281 113.235 44.9974C113.408 44.865 113.539 44.6822 113.629 44.4491C113.719 44.2142 113.764 43.9431 113.764 43.6358C113.764 43.3321 113.72 43.0663 113.632 42.8384C113.544 42.6089 113.413 42.4305 113.24 42.3033C113.067 42.1744 112.853 42.11 112.599 42.11C112.334 42.11 112.113 42.1779 111.937 42.3139C111.762 42.4482 111.63 42.6309 111.542 42.8623C111.455 43.0919 111.412 43.3497 111.412 43.6358C111.412 43.9254 111.456 44.1886 111.544 44.4252C111.635 44.6601 111.767 44.8473 111.942 44.9868C112.118 45.1246 112.337 45.1935 112.599 45.1935ZM117.998 45.6703V41.6013H118.623V45.6703H117.998ZM118.316 40.9232C118.194 40.9232 118.089 40.8817 118.001 40.7987C117.914 40.7157 117.871 40.6159 117.871 40.4993C117.871 40.3828 117.914 40.283 118.001 40.2C118.089 40.117 118.194 40.0755 118.316 40.0755C118.438 40.0755 118.542 40.117 118.628 40.2C118.717 40.283 118.761 40.3828 118.761 40.4993C118.761 40.6159 118.717 40.7157 118.628 40.7987C118.542 40.8817 118.438 40.9232 118.316 40.9232ZM123.808 45.7551C123.441 45.7551 123.119 45.6677 122.841 45.4928C122.566 45.318 122.35 45.0734 122.195 44.759C122.041 44.4447 121.965 44.0773 121.965 43.657C121.965 43.2332 122.041 42.8632 122.195 42.547C122.35 42.2309 122.566 41.9854 122.841 41.8106C123.119 41.6358 123.441 41.5483 123.808 41.5483C124.176 41.5483 124.497 41.6358 124.773 41.8106C125.05 41.9854 125.265 42.2309 125.419 42.547C125.574 42.8632 125.652 43.2332 125.652 43.657C125.652 44.0773 125.574 44.4447 125.419 44.759C125.265 45.0734 125.05 45.318 124.773 45.4928C124.497 45.6677 124.176 45.7551 123.808 45.7551ZM123.808 45.1935C124.087 45.1935 124.317 45.1219 124.497 44.9789C124.677 44.8358 124.811 44.6478 124.897 44.4146C124.984 44.1815 125.027 43.929 125.027 43.657C125.027 43.385 124.984 43.1316 124.897 42.8967C124.811 42.6618 124.677 42.472 124.497 42.3272C124.317 42.1824 124.087 42.11 123.808 42.11C123.529 42.11 123.3 42.1824 123.12 42.3272C122.939 42.472 122.806 42.6618 122.72 42.8967C122.633 43.1316 122.59 43.385 122.59 43.657C122.59 43.929 122.633 44.1815 122.72 44.4146C122.806 44.6478 122.939 44.8358 123.12 44.9789C123.3 45.1219 123.529 45.1935 123.808 45.1935Z" fill="white"/>
</svg>
