<svg width="128" height="65" viewBox="0 0 128 65" fill="none" xmlns="http://www.w3.org/2000/svg">
<g filter="url(#filter0_d_463_18510)">
<path d="M18.8073 23.1424C23.1377 18.812 30.1585 18.812 34.489 23.1424L40.2009 28.8543C41.5618 30.2152 41.5618 32.4211 40.2009 33.7821C38.8399 35.1429 36.634 35.1429 35.2731 33.7821L29.113 27.6219C27.7521 26.261 25.5452 26.261 24.1843 27.6219C22.8233 28.9828 22.8233 31.1897 24.1843 32.5506L27.8806 36.2469C29.2412 37.6078 29.2413 39.8138 27.8806 41.1746C26.5196 42.5356 24.3128 42.5356 22.9518 41.1746L21.1042 39.327C18.7226 36.9454 14.8608 36.9454 12.4792 39.327L7.95575 43.8504C7.30228 44.5039 6.41602 44.8709 5.49188 44.8709C2.38721 44.8709 0.831728 41.117 3.02704 38.9217L18.8073 23.1424ZM42.2048 35.6961C43.5747 34.3457 45.7767 34.3501 47.1413 35.7059L50.2712 38.8153C52.5206 41.0505 50.8541 44.8844 47.6852 44.7645C46.8267 44.7319 46.0101 44.383 45.3932 43.785L42.2253 40.7137C40.8119 39.3431 40.8027 37.0783 42.2048 35.6961Z" fill="url(#paint0_linear_463_18510)"/>
</g>
<path d="M68.0065 23.4993V25.1992H63.6286V27.8921H66.9835V29.562H63.6286V34H61.5225V23.4993H68.0065ZM71.907 22.8674V34H69.8008V22.8674H71.907ZM73.7472 29.8027C73.7472 28.9602 73.9127 28.2131 74.2436 27.5611C74.5846 26.9092 75.041 26.4078 75.6126 26.0567C76.1943 25.7057 76.8412 25.5302 77.5533 25.5302C78.1751 25.5302 78.7167 25.6556 79.1781 25.9063C79.6494 26.157 80.0255 26.473 80.3064 26.8541V25.6656H82.4276V34H80.3064V32.7814C80.0356 33.1726 79.6595 33.4985 79.1781 33.7593C78.7067 34.01 78.1601 34.1354 77.5383 34.1354C76.8362 34.1354 76.1943 33.9549 75.6126 33.5938C75.041 33.2327 74.5846 32.7263 74.2436 32.0744C73.9127 31.4124 73.7472 30.6552 73.7472 29.8027ZM80.3064 29.8328C80.3064 29.3213 80.2061 28.885 80.0055 28.524C79.8049 28.1529 79.5341 27.8721 79.1931 27.6815C78.8521 27.4809 78.486 27.3806 78.0949 27.3806C77.7037 27.3806 77.3427 27.4759 77.0117 27.6665C76.6808 27.857 76.41 28.1378 76.1993 28.5089C75.9988 28.87 75.8985 29.3012 75.8985 29.8027C75.8985 30.3042 75.9988 30.7455 76.1993 31.1266C76.41 31.4977 76.6808 31.7835 77.0117 31.9841C77.3527 32.1847 77.7138 32.285 78.0949 32.285C78.486 32.285 78.8521 32.1897 79.1931 31.9991C79.5341 31.7985 79.8049 31.5177 80.0055 31.1567C80.2061 30.7856 80.3064 30.3443 80.3064 29.8328ZM87.2377 27.3957V31.4275C87.2377 31.7083 87.3029 31.9139 87.4332 32.0443C87.5737 32.1646 87.8043 32.2248 88.1253 32.2248H89.1031V34H87.7793C86.0041 34 85.1165 33.1375 85.1165 31.4124V27.3957H84.1236V25.6656H85.1165V23.6046H87.2377V25.6656H89.1031V27.3957H87.2377ZM94.1082 34.1354C93.4262 34.1354 92.8144 34.015 92.2728 33.7743C91.7313 33.5236 91.3 33.1876 90.9791 32.7664C90.6681 32.3451 90.4976 31.8788 90.4676 31.3673H92.5888C92.6289 31.6882 92.7843 31.954 93.0551 32.1646C93.336 32.3752 93.682 32.4805 94.0932 32.4805C94.4943 32.4805 94.8053 32.4003 95.0259 32.2398C95.2566 32.0794 95.3719 31.8738 95.3719 31.623C95.3719 31.3522 95.2315 31.1517 94.9507 31.0213C94.6799 30.8809 94.2436 30.7304 93.6418 30.57C93.02 30.4195 92.5085 30.2641 92.1074 30.1036C91.7162 29.9431 91.3752 29.6974 91.0844 29.3664C90.8035 29.0355 90.6631 28.5892 90.6631 28.0275C90.6631 27.5662 90.7935 27.1449 91.0543 26.7638C91.3251 26.3827 91.7062 26.0818 92.1976 25.8612C92.6991 25.6405 93.2858 25.5302 93.9578 25.5302C94.9507 25.5302 95.743 25.7809 96.3347 26.2824C96.9265 26.7738 97.2524 27.4408 97.3126 28.2833H95.2967C95.2666 27.9523 95.1262 27.6915 94.8755 27.501C94.6348 27.3004 94.3088 27.2001 93.8976 27.2001C93.5165 27.2001 93.2206 27.2703 93.01 27.4107C92.8094 27.5511 92.7091 27.7467 92.7091 27.9974C92.7091 28.2782 92.8495 28.4939 93.1304 28.6443C93.4112 28.7847 93.8474 28.9302 94.4392 29.0806C95.0409 29.231 95.5374 29.3865 95.9285 29.547C96.3197 29.7074 96.6557 29.9582 96.9365 30.2992C97.2273 30.6301 97.3778 31.0714 97.3878 31.623C97.3878 32.1044 97.2524 32.5357 96.9816 32.9168C96.7209 33.2979 96.3397 33.5988 95.8383 33.8195C95.3468 34.0301 94.7702 34.1354 94.1082 34.1354ZM104.111 25.5452C104.743 25.5452 105.305 25.6857 105.796 25.9665C106.288 26.2373 106.669 26.6435 106.94 27.185C107.22 27.7166 107.361 28.3585 107.361 29.1107V34H105.255V29.3965C105.255 28.7346 105.089 28.2281 104.758 27.8771C104.427 27.516 103.976 27.3355 103.404 27.3355C102.823 27.3355 102.361 27.516 102.02 27.8771C101.689 28.2281 101.524 28.7346 101.524 29.3965V34H99.4176V22.8674H101.524V26.7036C101.795 26.3426 102.156 26.0618 102.607 25.8612C103.058 25.6506 103.56 25.5452 104.111 25.5452ZM109.123 29.8027C109.123 28.9602 109.288 28.2131 109.619 27.5611C109.96 26.9092 110.417 26.4078 110.988 26.0567C111.57 25.7057 112.217 25.5302 112.929 25.5302C113.551 25.5302 114.093 25.6556 114.554 25.9063C115.025 26.157 115.401 26.473 115.682 26.8541V25.6656H117.803V34H115.682V32.7814C115.411 33.1726 115.035 33.4985 114.554 33.7593C114.083 34.01 113.536 34.1354 112.914 34.1354C112.212 34.1354 111.57 33.9549 110.988 33.5938C110.417 33.2327 109.96 32.7263 109.619 32.0744C109.288 31.4124 109.123 30.6552 109.123 29.8027ZM115.682 29.8328C115.682 29.3213 115.582 28.885 115.381 28.524C115.181 28.1529 114.91 27.8721 114.569 27.6815C114.228 27.4809 113.862 27.3806 113.471 27.3806C113.08 27.3806 112.719 27.4759 112.388 27.6665C112.057 27.857 111.786 28.1378 111.575 28.5089C111.375 28.87 111.274 29.3012 111.274 29.8027C111.274 30.3042 111.375 30.7455 111.575 31.1266C111.786 31.4977 112.057 31.7835 112.388 31.9841C112.729 32.1847 113.09 32.285 113.471 32.285C113.862 32.285 114.228 32.1897 114.569 31.9991C114.91 31.7985 115.181 31.5177 115.381 31.1567C115.582 30.7856 115.682 30.3443 115.682 29.8328ZM122.267 26.9594C122.538 26.5181 122.889 26.1721 123.321 25.9213C123.762 25.6706 124.263 25.5452 124.825 25.5452V27.7567H124.268C123.606 27.7567 123.105 27.9122 122.764 28.2231C122.433 28.534 122.267 29.0756 122.267 29.8478V34H120.161V25.6656H122.267V26.9594Z" fill="#008BFE"/>
<path d="M62.5631 46.5661L61.5641 44.851H60.9022V46.5661H60.3546V42.3718H61.7086C62.0255 42.3718 62.2923 42.4259 62.5089 42.5343C62.7295 42.6426 62.894 42.789 63.0023 42.9735C63.1107 43.1581 63.1648 43.3687 63.1648 43.6054C63.1648 43.8942 63.0806 44.149 62.9121 44.3696C62.7476 44.5903 62.4989 44.7367 62.1659 44.8089L63.219 46.5661H62.5631ZM60.9022 44.4117H61.7086C62.0054 44.4117 62.2281 44.3395 62.3765 44.1951C62.5249 44.0467 62.5992 43.8501 62.5992 43.6054C62.5992 43.3567 62.5249 43.1641 62.3765 43.0277C62.2321 42.8913 62.0094 42.8231 61.7086 42.8231H60.9022V44.4117ZM65.5141 46.6202C65.2052 46.6202 64.9244 46.55 64.6716 46.4096C64.4229 46.2692 64.2263 46.0706 64.0819 45.8139C63.9415 45.5531 63.8713 45.2522 63.8713 44.9112C63.8713 44.5742 63.9435 44.2774 64.0879 44.0206C64.2363 43.7598 64.4369 43.5613 64.6897 43.4249C64.9424 43.2844 65.2252 43.2142 65.5382 43.2142C65.8511 43.2142 66.1339 43.2844 66.3866 43.4249C66.6394 43.5613 66.838 43.7578 66.9824 44.0146C67.1308 44.2713 67.205 44.5702 67.205 44.9112C67.205 45.2522 67.1288 45.5531 66.9764 45.8139C66.8279 46.0706 66.6253 46.2692 66.3686 46.4096C66.1118 46.55 65.827 46.6202 65.5141 46.6202ZM65.5141 46.1388C65.7107 46.1388 65.8952 46.0927 66.0677 46.0004C66.2402 45.9081 66.3786 45.7697 66.4829 45.5852C66.5912 45.4006 66.6454 45.176 66.6454 44.9112C66.6454 44.6464 66.5932 44.4218 66.4889 44.2372C66.3846 44.0527 66.2482 43.9163 66.0797 43.828C65.9112 43.7358 65.7287 43.6896 65.5321 43.6896C65.3316 43.6896 65.147 43.7358 64.9785 43.828C64.814 43.9163 64.6816 44.0527 64.5814 44.2372C64.4811 44.4218 64.4309 44.6464 64.4309 44.9112C64.4309 45.18 64.4791 45.4067 64.5753 45.5912C64.6756 45.7757 64.808 45.9141 64.9725 46.0064C65.137 46.0947 65.3175 46.1388 65.5141 46.1388ZM69.4234 46.6202C69.1145 46.6202 68.8337 46.55 68.581 46.4096C68.3322 46.2692 68.1357 46.0706 67.9912 45.8139C67.8508 45.5531 67.7806 45.2522 67.7806 44.9112C67.7806 44.5742 67.8528 44.2774 67.9972 44.0206C68.1457 43.7598 68.3463 43.5613 68.599 43.4249C68.8517 43.2844 69.1346 43.2142 69.4475 43.2142C69.7604 43.2142 70.0432 43.2844 70.296 43.4249C70.5487 43.5613 70.7473 43.7578 70.8917 44.0146C71.0402 44.2713 71.1144 44.5702 71.1144 44.9112C71.1144 45.2522 71.0381 45.5531 70.8857 45.8139C70.7373 46.0706 70.5347 46.2692 70.2779 46.4096C70.0212 46.55 69.7363 46.6202 69.4234 46.6202ZM69.4234 46.1388C69.62 46.1388 69.8045 46.0927 69.977 46.0004C70.1495 45.9081 70.288 45.7697 70.3923 45.5852C70.5006 45.4006 70.5547 45.176 70.5547 44.9112C70.5547 44.6464 70.5026 44.4218 70.3983 44.2372C70.294 44.0527 70.1576 43.9163 69.9891 43.828C69.8206 43.7358 69.638 43.6896 69.4415 43.6896C69.2409 43.6896 69.0563 43.7358 68.8879 43.828C68.7234 43.9163 68.591 44.0527 68.4907 44.2372C68.3904 44.4218 68.3402 44.6464 68.3402 44.9112C68.3402 45.18 68.3884 45.4067 68.4847 45.5912C68.585 45.7757 68.7174 45.9141 68.8818 46.0064C69.0463 46.0947 69.2268 46.1388 69.4234 46.1388ZM75.8602 43.2082C76.1169 43.2082 76.3456 43.2624 76.5462 43.3707C76.7467 43.475 76.9052 43.6335 77.0216 43.8461C77.1379 44.0587 77.1961 44.3175 77.1961 44.6224V46.5661H76.6545V44.7006C76.6545 44.3716 76.5722 44.1209 76.4078 43.9484C76.2473 43.7719 76.0286 43.6836 75.7518 43.6836C75.467 43.6836 75.2403 43.7759 75.0718 43.9604C74.9034 44.141 74.8191 44.4037 74.8191 44.7487V46.5661H74.2775V44.7006C74.2775 44.3716 74.1953 44.1209 74.0308 43.9484C73.8703 43.7719 73.6517 43.6836 73.3749 43.6836C73.09 43.6836 72.8634 43.7759 72.6949 43.9604C72.5264 44.141 72.4421 44.4037 72.4421 44.7487V46.5661H71.8945V43.2684H72.4421V43.7438C72.5505 43.5713 72.6949 43.4389 72.8754 43.3466C73.06 43.2544 73.2625 43.2082 73.4832 43.2082C73.76 43.2082 74.0047 43.2704 74.2173 43.3948C74.43 43.5191 74.5884 43.7017 74.6927 43.9424C74.785 43.7097 74.9375 43.5292 75.1501 43.4008C75.3627 43.2724 75.5994 43.2082 75.8602 43.2082ZM79.3219 46.6202C79.0692 46.6202 78.8425 46.5781 78.6419 46.4938C78.4413 46.4056 78.2829 46.2852 78.1665 46.1328C78.0502 45.9763 77.986 45.7978 77.974 45.5972H78.5396C78.5557 45.7617 78.6319 45.8961 78.7683 46.0004C78.9087 46.1047 79.0913 46.1569 79.3159 46.1569C79.5245 46.1569 79.689 46.1107 79.8094 46.0185C79.9297 45.9262 79.9899 45.8098 79.9899 45.6694C79.9899 45.525 79.9257 45.4187 79.7973 45.3505C79.6689 45.2783 79.4704 45.2081 79.2016 45.1399C78.9569 45.0757 78.7563 45.0115 78.5998 44.9473C78.4474 44.8791 78.315 44.7808 78.2026 44.6525C78.0943 44.5201 78.0402 44.3476 78.0402 44.1349C78.0402 43.9664 78.0903 43.812 78.1906 43.6716C78.2909 43.5312 78.4333 43.4208 78.6179 43.3406C78.8024 43.2564 79.013 43.2142 79.2497 43.2142C79.6148 43.2142 79.9096 43.3065 80.1343 43.4911C80.359 43.6756 80.4793 43.9283 80.4954 44.2493H79.9478C79.9357 44.0768 79.8655 43.9384 79.7371 43.8341C79.6128 43.7298 79.4443 43.6776 79.2317 43.6776C79.0351 43.6776 78.8786 43.7197 78.7623 43.804C78.6459 43.8882 78.5878 43.9985 78.5878 44.1349C78.5878 44.2433 78.6219 44.3335 78.6901 44.4057C78.7623 44.4739 78.8505 44.5301 78.9549 44.5742C79.0632 44.6143 79.2116 44.6605 79.4002 44.7126C79.6368 44.7768 79.8294 44.841 79.9778 44.9052C80.1263 44.9654 80.2527 45.0576 80.357 45.182C80.4653 45.3064 80.5214 45.4688 80.5254 45.6694C80.5254 45.85 80.4753 46.0124 80.375 46.1569C80.2747 46.3013 80.1323 46.4156 79.9478 46.4999C79.7672 46.5801 79.5586 46.6202 79.3219 46.6202ZM86.2426 46.5661L85.695 46.0124C85.4904 46.2251 85.2717 46.3835 85.039 46.4878C84.8064 46.5881 84.5436 46.6383 84.2507 46.6383C83.9619 46.6383 83.7051 46.5861 83.4805 46.4818C83.2598 46.3775 83.0873 46.2291 82.963 46.0365C82.8426 45.8439 82.7824 45.6193 82.7824 45.3625C82.7824 45.0697 82.8647 44.8129 83.0292 44.5923C83.1976 44.3676 83.4444 44.1911 83.7693 44.0627C83.6409 43.9103 83.5487 43.7699 83.4925 43.6415C83.4363 43.5131 83.4083 43.3727 83.4083 43.2203C83.4083 43.0437 83.4524 42.8853 83.5407 42.7449C83.6329 42.6004 83.7633 42.4881 83.9318 42.4079C84.1003 42.3276 84.2949 42.2875 84.5155 42.2875C84.7321 42.2875 84.9207 42.3297 85.0812 42.4139C85.2416 42.4981 85.362 42.6165 85.4422 42.7689C85.5225 42.9174 85.5586 43.0839 85.5505 43.2684H85.0029C85.0069 43.1039 84.9608 42.9755 84.8645 42.8833C84.7682 42.787 84.6439 42.7389 84.4914 42.7389C84.331 42.7389 84.2006 42.785 84.1003 42.8773C84.004 42.9655 83.9559 43.0798 83.9559 43.2203C83.9559 43.3406 83.988 43.457 84.0521 43.5693C84.1203 43.6816 84.2327 43.82 84.3891 43.9845L85.6408 45.2422L85.7491 45.0737L86.1583 44.3877H86.748L86.2546 45.2422C86.1864 45.3625 86.1062 45.4889 86.0139 45.6213L86.9587 46.5661H86.2426ZM84.2507 46.1689C84.4674 46.1689 84.6619 46.1268 84.8344 46.0425C85.011 45.9583 85.1774 45.8279 85.3339 45.6514L84.1003 44.4117C83.5868 44.6083 83.33 44.9192 83.33 45.3445C83.33 45.5812 83.4143 45.7777 83.5828 45.9342C83.7553 46.0907 83.9779 46.1689 84.2507 46.1689ZM91.4048 46.5661L90.4059 44.851H89.744V46.5661H89.1964V42.3718H90.5503C90.8673 42.3718 91.134 42.4259 91.3507 42.5343C91.5713 42.6426 91.7358 42.789 91.8441 42.9735C91.9524 43.1581 92.0066 43.3687 92.0066 43.6054C92.0066 43.8942 91.9223 44.149 91.7539 44.3696C91.5894 44.5903 91.3406 44.7367 91.0077 44.8089L92.0607 46.5661H91.4048ZM89.744 44.4117H90.5503C90.8472 44.4117 91.0698 44.3395 91.2183 44.1951C91.3667 44.0467 91.4409 43.8501 91.4409 43.6054C91.4409 43.3567 91.3667 43.1641 91.2183 43.0277C91.0739 42.8913 90.8512 42.8231 90.5503 42.8231H89.744V44.4117ZM94.3559 46.6202C94.047 46.6202 93.7661 46.55 93.5134 46.4096C93.2647 46.2692 93.0681 46.0706 92.9237 45.8139C92.7833 45.5531 92.713 45.2522 92.713 44.9112C92.713 44.5742 92.7853 44.2774 92.9297 44.0206C93.0781 43.7598 93.2787 43.5613 93.5314 43.4249C93.7842 43.2844 94.067 43.2142 94.3799 43.2142C94.6928 43.2142 94.9757 43.2844 95.2284 43.4249C95.4812 43.5613 95.6797 43.7578 95.8242 44.0146C95.9726 44.2713 96.0468 44.5702 96.0468 44.9112C96.0468 45.2522 95.9706 45.5531 95.8181 45.8139C95.6697 46.0706 95.4671 46.2692 95.2104 46.4096C94.9536 46.55 94.6688 46.6202 94.3559 46.6202ZM94.3559 46.1388C94.5524 46.1388 94.737 46.0927 94.9095 46.0004C95.082 45.9081 95.2204 45.7697 95.3247 45.5852C95.433 45.4006 95.4872 45.176 95.4872 44.9112C95.4872 44.6464 95.435 44.4218 95.3307 44.2372C95.2264 44.0527 95.09 43.9163 94.9215 43.828C94.753 43.7358 94.5705 43.6896 94.3739 43.6896C94.1733 43.6896 93.9888 43.7358 93.8203 43.828C93.6558 43.9163 93.5234 44.0527 93.4231 44.2372C93.3228 44.4218 93.2727 44.6464 93.2727 44.9112C93.2727 45.18 93.3208 45.4067 93.4171 45.5912C93.5174 45.7757 93.6498 45.9141 93.8143 46.0064C93.9788 46.0947 94.1593 46.1388 94.3559 46.1388ZM98.2652 46.6202C97.9563 46.6202 97.6755 46.55 97.4227 46.4096C97.174 46.2692 96.9774 46.0706 96.833 45.8139C96.6926 45.5531 96.6224 45.2522 96.6224 44.9112C96.6224 44.5742 96.6946 44.2774 96.839 44.0206C96.9875 43.7598 97.188 43.5613 97.4408 43.4249C97.6935 43.2844 97.9763 43.2142 98.2893 43.2142C98.6022 43.2142 98.885 43.2844 99.1377 43.4249C99.3905 43.5613 99.5891 43.7578 99.7335 44.0146C99.8819 44.2713 99.9561 44.5702 99.9561 44.9112C99.9561 45.2522 99.8799 45.5531 99.7275 45.8139C99.579 46.0706 99.3764 46.2692 99.1197 46.4096C98.8629 46.55 98.5781 46.6202 98.2652 46.6202ZM98.2652 46.1388C98.4618 46.1388 98.6463 46.0927 98.8188 46.0004C98.9913 45.9081 99.1297 45.7697 99.234 45.5852C99.3423 45.4006 99.3965 45.176 99.3965 44.9112C99.3965 44.6464 99.3444 44.4218 99.24 44.2372C99.1357 44.0527 98.9993 43.9163 98.8308 43.828C98.6624 43.7358 98.4798 43.6896 98.2832 43.6896C98.0827 43.6896 97.8981 43.7358 97.7296 43.828C97.5651 43.9163 97.4328 44.0527 97.3325 44.2372C97.2322 44.4218 97.182 44.6464 97.182 44.9112C97.182 45.18 97.2302 45.4067 97.3264 45.5912C97.4267 45.7757 97.5591 45.9141 97.7236 46.0064C97.8881 46.0947 98.0686 46.1388 98.2652 46.1388ZM104.702 43.2082C104.959 43.2082 105.187 43.2624 105.388 43.3707C105.589 43.475 105.747 43.6335 105.863 43.8461C105.98 44.0587 106.038 44.3175 106.038 44.6224V46.5661H105.496V44.7006C105.496 44.3716 105.414 44.1209 105.25 43.9484C105.089 43.7719 104.87 43.6836 104.594 43.6836C104.309 43.6836 104.082 43.7759 103.914 43.9604C103.745 44.141 103.661 44.4037 103.661 44.7487V46.5661H103.119V44.7006C103.119 44.3716 103.037 44.1209 102.873 43.9484C102.712 43.7719 102.493 43.6836 102.217 43.6836C101.932 43.6836 101.705 43.7759 101.537 43.9604C101.368 44.141 101.284 44.4037 101.284 44.7487V46.5661H100.736V43.2684H101.284V43.7438C101.392 43.5713 101.537 43.4389 101.717 43.3466C101.902 43.2544 102.104 43.2082 102.325 43.2082C102.602 43.2082 102.846 43.2704 103.059 43.3948C103.272 43.5191 103.43 43.7017 103.535 43.9424C103.627 43.7097 103.779 43.5292 103.992 43.4008C104.204 43.2724 104.441 43.2082 104.702 43.2082ZM110.962 43.2082C111.219 43.2082 111.447 43.2624 111.648 43.3707C111.848 43.475 112.007 43.6335 112.123 43.8461C112.24 44.0587 112.298 44.3175 112.298 44.6224V46.5661H111.756V44.7006C111.756 44.3716 111.674 44.1209 111.509 43.9484C111.349 43.7719 111.13 43.6836 110.854 43.6836C110.569 43.6836 110.342 43.7759 110.174 43.9604C110.005 44.141 109.921 44.4037 109.921 44.7487V46.5661H109.379V44.7006C109.379 44.3716 109.297 44.1209 109.133 43.9484C108.972 43.7719 108.753 43.6836 108.477 43.6836C108.192 43.6836 107.965 43.7759 107.797 43.9604C107.628 44.141 107.544 44.4037 107.544 44.7487V46.5661H106.996V43.2684H107.544V43.7438C107.652 43.5713 107.797 43.4389 107.977 43.3466C108.162 43.2544 108.364 43.2082 108.585 43.2082C108.862 43.2082 109.106 43.2704 109.319 43.3948C109.532 43.5191 109.69 43.7017 109.794 43.9424C109.887 43.7097 110.039 43.5292 110.252 43.4008C110.464 43.2724 110.701 43.2082 110.962 43.2082ZM113.052 44.9052C113.052 44.5682 113.12 44.2733 113.256 44.0206C113.393 43.7639 113.579 43.5653 113.816 43.4249C114.057 43.2844 114.323 43.2142 114.616 43.2142C114.905 43.2142 115.156 43.2764 115.368 43.4008C115.581 43.5252 115.74 43.6816 115.844 43.8702V43.2684H116.397V46.5661H115.844V45.9523C115.736 46.1448 115.573 46.3053 115.356 46.4337C115.144 46.558 114.895 46.6202 114.61 46.6202C114.317 46.6202 114.053 46.548 113.816 46.4036C113.579 46.2592 113.393 46.0566 113.256 45.7958C113.12 45.535 113.052 45.2382 113.052 44.9052ZM115.844 44.9112C115.844 44.6625 115.794 44.4458 115.693 44.2613C115.593 44.0768 115.457 43.9364 115.284 43.8401C115.116 43.7398 114.929 43.6896 114.725 43.6896C114.52 43.6896 114.333 43.7378 114.165 43.8341C113.996 43.9303 113.862 44.0708 113.762 44.2553C113.661 44.4398 113.611 44.6565 113.611 44.9052C113.611 45.1579 113.661 45.3786 113.762 45.5671C113.862 45.7517 113.996 45.8941 114.165 45.9944C114.333 46.0907 114.52 46.1388 114.725 46.1388C114.929 46.1388 115.116 46.0907 115.284 45.9944C115.457 45.8941 115.593 45.7517 115.693 45.5671C115.794 45.3786 115.844 45.1599 115.844 44.9112ZM118.051 43.7197V45.6634C118.051 45.8239 118.085 45.9382 118.153 46.0064C118.221 46.0706 118.34 46.1027 118.508 46.1027H118.911V46.5661H118.418C118.113 46.5661 117.884 46.4958 117.732 46.3554C117.58 46.215 117.503 45.9844 117.503 45.6634V43.7197H117.076V43.2684H117.503V42.438H118.051V43.2684H118.911V43.7197H118.051ZM122.644 44.7909C122.644 44.8952 122.638 45.0055 122.626 45.1218H119.99C120.01 45.4468 120.121 45.7015 120.321 45.8861C120.526 46.0666 120.772 46.1569 121.061 46.1569C121.298 46.1569 121.495 46.1027 121.651 45.9944C121.812 45.8821 121.924 45.7336 121.988 45.5491H122.578C122.49 45.866 122.313 46.1248 122.048 46.3254C121.783 46.5219 121.454 46.6202 121.061 46.6202C120.748 46.6202 120.468 46.55 120.219 46.4096C119.974 46.2692 119.782 46.0706 119.641 45.8139C119.501 45.5531 119.431 45.2522 119.431 44.9112C119.431 44.5702 119.499 44.2713 119.635 44.0146C119.772 43.7578 119.962 43.5613 120.207 43.4249C120.456 43.2844 120.74 43.2142 121.061 43.2142C121.374 43.2142 121.651 43.2824 121.892 43.4188C122.132 43.5552 122.317 43.7438 122.445 43.9845C122.578 44.2212 122.644 44.49 122.644 44.7909ZM122.078 44.6765C122.078 44.4679 122.032 44.2894 121.94 44.141C121.848 43.9885 121.721 43.8742 121.561 43.798C121.404 43.7177 121.23 43.6776 121.037 43.6776C120.76 43.6776 120.524 43.7659 120.327 43.9424C120.135 44.1189 120.024 44.3636 119.996 44.6765H122.078ZM124.594 46.6202C124.342 46.6202 124.115 46.5781 123.914 46.4938C123.714 46.4056 123.555 46.2852 123.439 46.1328C123.323 45.9763 123.258 45.7978 123.246 45.5972H123.812C123.828 45.7617 123.904 45.8961 124.041 46.0004C124.181 46.1047 124.364 46.1569 124.588 46.1569C124.797 46.1569 124.961 46.1107 125.082 46.0185C125.202 45.9262 125.262 45.8098 125.262 45.6694C125.262 45.525 125.198 45.4187 125.07 45.3505C124.941 45.2783 124.743 45.2081 124.474 45.1399C124.229 45.0757 124.029 45.0115 123.872 44.9473C123.72 44.8791 123.587 44.7808 123.475 44.6525C123.367 44.5201 123.313 44.3476 123.313 44.1349C123.313 43.9664 123.363 43.812 123.463 43.6716C123.563 43.5312 123.706 43.4208 123.89 43.3406C124.075 43.2564 124.285 43.2142 124.522 43.2142C124.887 43.2142 125.182 43.3065 125.407 43.4911C125.631 43.6756 125.752 43.9283 125.768 44.2493H125.22C125.208 44.0768 125.138 43.9384 125.01 43.8341C124.885 43.7298 124.717 43.6776 124.504 43.6776C124.308 43.6776 124.151 43.7197 124.035 43.804C123.918 43.8882 123.86 43.9985 123.86 44.1349C123.86 44.2433 123.894 44.3335 123.963 44.4057C124.035 44.4739 124.123 44.5301 124.227 44.5742C124.336 44.6143 124.484 44.6605 124.673 44.7126C124.909 44.7768 125.102 44.841 125.25 44.9052C125.399 44.9654 125.525 45.0576 125.629 45.182C125.738 45.3064 125.794 45.4688 125.798 45.6694C125.798 45.85 125.748 46.0124 125.647 46.1569C125.547 46.3013 125.405 46.4156 125.22 46.4999C125.04 46.5801 124.831 46.6202 124.594 46.6202Z" fill="white"/>
<defs>
<filter id="filter0_d_463_18510" x="1.28103" y="19.7509" width="50.7442" height="26.4133" filterUnits="userSpaceOnUse" color-interpolation-filters="sRGB">
<feFlood flood-opacity="0" result="BackgroundImageFix"/>
<feColorMatrix in="SourceAlpha" type="matrix" values="0 0 0 0 0 0 0 0 0 0 0 0 0 0 0 0 0 0 127 0" result="hardAlpha"/>
<feOffset dy="0.574783"/>
<feGaussianBlur stdDeviation="0.35924"/>
<feComposite in2="hardAlpha" operator="out"/>
<feColorMatrix type="matrix" values="0 0 0 0 0.417968 0 0 0 0 0.417968 0 0 0 0 0.417968 0 0 0 0.25 0"/>
<feBlend mode="normal" in2="BackgroundImageFix" result="effect1_dropShadow_463_18510"/>
<feBlend mode="normal" in="SourceGraphic" in2="effect1_dropShadow_463_18510" result="shape"/>
</filter>
<linearGradient id="paint0_linear_463_18510" x1="26.6533" y1="19.8944" x2="26.6533" y2="44.8707" gradientUnits="userSpaceOnUse">
<stop stop-color="#008CFF"/>
<stop offset="1" stop-color="#0077D9"/>
</linearGradient>
</defs>
</svg>
