<svg width="128" height="65" viewBox="0 0 128 65" fill="none" xmlns="http://www.w3.org/2000/svg">
<g clip-path="url(#clip0_463_18542)">
<g clip-path="url(#clip1_463_18542)">
<path d="M31.9167 37H25.3213V13.6472H27.9515C28.6555 13.6472 29.7182 13.6206 31.1396 13.5674C32.5609 13.501 33.7299 13.4678 34.6465 13.4678C37.2235 13.4678 39.1762 14.1519 40.5046 15.5202C41.833 16.8884 42.4972 18.9407 42.4972 21.6772C42.4972 23.3244 42.278 24.8254 41.8396 26.1804C41.4146 27.522 40.8367 28.6246 40.1061 29.488C39.3755 30.3515 38.5453 31.0157 37.6154 31.4806C36.6855 31.9455 35.7025 32.178 34.6664 32.178C34.5336 32.178 34.3941 32.178 34.248 32.178C34.1151 32.178 33.9889 32.178 33.8694 32.178C33.7631 32.1647 33.6303 32.1581 33.4709 32.1581C33.3247 32.1448 33.2052 32.1381 33.1122 32.1381C33.0325 32.1249 32.913 32.1182 32.7535 32.1182C32.6074 32.1049 32.5078 32.0983 32.4547 32.0983C32.4015 32.0983 32.3019 32.0917 32.1558 32.0784C32.0097 32.0651 31.93 32.0584 31.9167 32.0584V37ZM35.9616 20.8005C35.9616 19.8175 35.6959 19.0204 35.1645 18.4094C34.6332 17.7983 33.8694 17.4928 32.8731 17.4928H31.9167V27.8541H32.6539C33.7033 27.8541 34.5136 27.5021 35.0848 26.7981C35.6693 26.094 35.9616 25.0778 35.9616 23.7495V20.8005ZM56.3953 37H50.318L45.237 20.0632H52.4301L54.8411 30.8629L56.6544 23.4506L55.7178 20.0632H62.6121L64.6445 30.8629L67.3345 20.0632H71.5986L66.4976 37H60.4402L58.4875 30.026L56.3953 37ZM84.3166 35.2266L84.1173 35.4458C83.9845 35.6052 83.7786 35.7912 83.4996 36.0037C83.234 36.2163 82.9218 36.4288 82.5631 36.6413C82.2178 36.8539 81.7927 37.0332 81.2879 37.1793C80.7831 37.3387 80.265 37.4184 79.7337 37.4184C76.1471 37.4184 74.3538 35.6451 74.3538 32.0983C74.3538 31.4075 74.48 30.7766 74.7324 30.2054C74.9847 29.6209 75.3102 29.1294 75.7087 28.7309C76.1072 28.3323 76.5854 27.9803 77.1434 27.6748C77.7013 27.356 78.2592 27.1102 78.8171 26.9376C79.3883 26.7516 79.9861 26.5988 80.6104 26.4793C81.2348 26.3597 81.7927 26.28 82.2842 26.2402C82.7757 26.2003 83.2472 26.1804 83.6989 26.1804V25.8217C83.6989 25.0114 83.4797 24.4402 83.0413 24.1081C82.6163 23.776 81.9255 23.61 80.9691 23.61C80.1455 23.61 79.2887 23.7096 78.3987 23.9089C77.5087 24.0948 76.8113 24.3207 76.3065 24.5863L75.0312 21.8764C75.9345 21.292 77.1101 20.7805 78.5581 20.3422C80.006 19.8905 81.4805 19.6647 82.9816 19.6647C84.3099 19.6647 85.4059 19.7975 86.2693 20.0632C87.1327 20.3156 87.8301 20.754 88.3615 21.3783C88.9061 21.9894 89.2914 22.7731 89.5172 23.7295C89.743 24.6727 89.8559 25.8749 89.8559 27.3361V35.4458L90.4138 37H84.9542L84.3166 35.2266ZM82.7425 33.9115C82.9151 33.9115 83.0746 33.8783 83.2207 33.8119C83.3801 33.7322 83.4996 33.6591 83.5793 33.5927C83.659 33.513 83.6989 33.4732 83.6989 33.4732V28.691C82.8886 28.691 82.2443 28.9168 81.7661 29.3685C81.2879 29.8068 81.0488 30.491 81.0488 31.4208C81.0488 33.0813 81.6133 33.9115 82.7425 33.9115ZM95.1739 37V14.4641L93.9783 13.7468V11.8937L100.374 10.8974H101.67V37H95.1739Z" fill="white"/>
<path d="M64.1841 9.64915L63.7935 6.71654H67.5288L66.519 11.7624L71.2651 16.0564H63.7935L58.812 10.4519L53.2075 16.0564H45.1128L58.189 4.22533L64.1841 9.64915Z" fill="url(#paint0_linear_463_18542)"/>
<path d="M27.2786 48.468C27.2786 49.0184 27.0888 49.4771 26.7092 49.8441C26.3359 50.2047 25.7633 50.385 24.9915 50.385H23.7198V53.1466H22.8562V46.532H24.9915C25.738 46.532 26.3043 46.7124 26.6902 47.073C27.0825 47.4336 27.2786 47.8986 27.2786 48.468ZM24.9915 49.6732C25.4723 49.6732 25.8266 49.5689 26.0544 49.3601C26.2821 49.1513 26.396 48.8539 26.396 48.468C26.396 47.6519 25.9278 47.2438 24.9915 47.2438H23.7198V49.6732H24.9915ZM28.741 48.7907C28.8928 48.4933 29.108 48.2624 29.3863 48.0979C29.671 47.9334 30.0158 47.8512 30.4207 47.8512V48.7432H30.193C29.225 48.7432 28.741 49.2683 28.741 50.3186V53.1466H27.8774V47.9461H28.741V48.7907ZM33.2113 53.232C32.7241 53.232 32.2812 53.1213 31.8827 52.8999C31.4904 52.6784 31.1804 52.3652 30.9526 51.9603C30.7312 51.5491 30.6205 51.0746 30.6205 50.5368C30.6205 50.0054 30.7344 49.5372 30.9621 49.1323C31.1962 48.7211 31.5125 48.4079 31.9111 48.1928C32.3097 47.9714 32.7557 47.8606 33.2492 47.8606C33.7427 47.8606 34.1887 47.9714 34.5873 48.1928C34.9859 48.4079 35.2991 48.7179 35.5268 49.1228C35.7609 49.5277 35.878 49.9991 35.878 50.5368C35.878 51.0746 35.7578 51.5491 35.5173 51.9603C35.2832 52.3652 34.9638 52.6784 34.5588 52.8999C34.1539 53.1213 33.7047 53.232 33.2113 53.232ZM33.2113 52.4728C33.5213 52.4728 33.8123 52.4 34.0843 52.2545C34.3564 52.109 34.5747 51.8907 34.7392 51.5997C34.91 51.3087 34.9954 50.9544 34.9954 50.5368C34.9954 50.1193 34.9131 49.765 34.7486 49.474C34.5842 49.1829 34.369 48.9678 34.1033 48.8286C33.8376 48.6831 33.5497 48.6104 33.2397 48.6104C32.9234 48.6104 32.6324 48.6831 32.3666 48.8286C32.1073 48.9678 31.8985 49.1829 31.7403 49.474C31.5821 49.765 31.5031 50.1193 31.5031 50.5368C31.5031 50.9607 31.579 51.3182 31.7308 51.6092C31.889 51.9002 32.0978 52.1185 32.3572 52.264C32.6165 52.4032 32.9013 52.4728 33.2113 52.4728ZM37.4025 48.9045C37.5733 48.6072 37.8264 48.3605 38.1617 48.1643C38.5034 47.9619 38.8988 47.8606 39.348 47.8606C39.8098 47.8606 40.2274 47.9714 40.6007 48.1928C40.9803 48.4142 41.2776 48.7274 41.4927 49.1323C41.7078 49.5309 41.8154 49.9959 41.8154 50.5273C41.8154 51.0525 41.7078 51.5206 41.4927 51.9319C41.2776 52.3431 40.9803 52.6626 40.6007 52.8904C40.2274 53.1181 39.8098 53.232 39.348 53.232C38.9051 53.232 38.5129 53.1339 38.1712 52.9378C37.8359 52.7354 37.5797 52.4855 37.4025 52.1881V55.614H36.5389V47.9461H37.4025V48.9045ZM40.9328 50.5273C40.9328 50.1351 40.8537 49.7934 40.6956 49.5024C40.5374 49.2114 40.3223 48.99 40.0502 48.8381C39.7845 48.6863 39.4903 48.6104 39.1677 48.6104C38.8513 48.6104 38.5571 48.6894 38.2851 48.8476C38.0194 48.9994 37.8043 49.224 37.6398 49.5214C37.4816 49.8124 37.4025 50.1509 37.4025 50.5368C37.4025 50.9291 37.4816 51.2739 37.6398 51.5712C37.8043 51.8623 38.0194 52.0869 38.2851 52.245C38.5571 52.3969 38.8513 52.4728 39.1677 52.4728C39.4903 52.4728 39.7845 52.3969 40.0502 52.245C40.3223 52.0869 40.5374 51.8623 40.6956 51.5712C40.8537 51.2739 40.9328 50.9259 40.9328 50.5273ZM47.2226 50.347C47.2226 50.5115 47.2131 50.6855 47.1942 50.869H43.0375C43.0692 51.3814 43.2431 51.7832 43.5595 52.0742C43.8821 52.3589 44.2712 52.5013 44.7267 52.5013C45.1 52.5013 45.41 52.4159 45.6568 52.245C45.9098 52.0679 46.087 51.8338 46.1882 51.5428H47.1182C46.9791 52.0426 46.7007 52.4507 46.2831 52.767C45.8656 53.077 45.3468 53.232 44.7267 53.232C44.2333 53.232 43.7904 53.1213 43.3981 52.8999C43.0122 52.6784 42.7085 52.3652 42.4871 51.9603C42.2657 51.5491 42.1549 51.0746 42.1549 50.5368C42.1549 49.9991 42.2625 49.5277 42.4776 49.1228C42.6927 48.7179 42.9932 48.4079 43.3792 48.1928C43.7714 47.9714 44.2206 47.8606 44.7267 47.8606C45.2202 47.8606 45.6568 47.9682 46.0364 48.1833C46.416 48.3984 46.707 48.6958 46.9095 49.0754C47.1182 49.4486 47.2226 49.8725 47.2226 50.347ZM46.3306 50.1667C46.3306 49.8377 46.2578 49.5562 46.1123 49.3221C45.9668 49.0817 45.7675 48.9014 45.5144 48.7812C45.2677 48.6546 44.9925 48.5914 44.6888 48.5914C44.2522 48.5914 43.879 48.7306 43.569 49.0089C43.2653 49.2873 43.0913 49.6732 43.047 50.1667H46.3306ZM48.7516 48.7907C48.9035 48.4933 49.1186 48.2624 49.397 48.0979C49.6817 47.9334 50.0265 47.8512 50.4314 47.8512V48.7432H50.2036C49.2356 48.7432 48.7516 49.2683 48.7516 50.3186V53.1466H47.888V47.9461H48.7516V48.7907ZM52.0072 48.6578V51.7231C52.0072 51.9762 52.0609 52.1565 52.1685 52.264C52.276 52.3652 52.4627 52.4159 52.7284 52.4159H53.3642V53.1466H52.5861C52.1052 53.1466 51.7446 53.0359 51.5042 52.8144C51.2638 52.593 51.1436 52.2292 51.1436 51.7231V48.6578H50.4698V47.9461H51.1436V46.6364H52.0072V47.9461H53.3642V48.6578H52.0072ZM58.4154 47.9461L55.2837 55.595H54.3916L55.4165 53.0897L53.3192 47.9461H54.2777L55.91 52.1596L57.5233 47.9461H58.4154ZM62.7056 53.232C62.307 53.232 61.9496 53.1656 61.6332 53.0327C61.3169 52.8935 61.067 52.7037 60.8835 52.4633C60.7001 52.2166 60.5988 51.935 60.5799 51.6187H61.4719C61.4972 51.8781 61.6174 52.09 61.8325 52.2545C62.054 52.419 62.3418 52.5013 62.6961 52.5013C63.0251 52.5013 63.2845 52.4285 63.4743 52.283C63.6641 52.1375 63.759 51.954 63.759 51.7326C63.759 51.5048 63.6578 51.3372 63.4553 51.2296C63.2529 51.1157 62.9397 51.005 62.5158 50.8975C62.1299 50.7962 61.8136 50.695 61.5668 50.5938C61.3264 50.4862 61.1176 50.3312 60.9405 50.1288C60.7697 49.92 60.6842 49.6479 60.6842 49.3126C60.6842 49.0469 60.7633 48.8033 60.9215 48.5819C61.0797 48.3605 61.3043 48.1865 61.5953 48.0599C61.8863 47.9271 62.2185 47.8606 62.5917 47.8606C63.1675 47.8606 63.6325 48.0062 63.9868 48.2972C64.3411 48.5882 64.5309 48.9868 64.5562 49.4929H63.6926C63.6736 49.2209 63.5629 49.0026 63.3604 48.8381C63.1643 48.6736 62.8986 48.5914 62.5633 48.5914C62.2533 48.5914 62.0065 48.6578 61.823 48.7907C61.6396 48.9235 61.5478 49.0975 61.5478 49.3126C61.5478 49.4834 61.6016 49.6258 61.7092 49.7397C61.823 49.8472 61.9622 49.9358 62.1267 50.0054C62.2975 50.0687 62.5316 50.1414 62.829 50.2237C63.2023 50.3249 63.5059 50.4261 63.74 50.5273C63.9741 50.6222 64.1734 50.7678 64.3379 50.9639C64.5087 51.16 64.5973 51.4162 64.6036 51.7326C64.6036 52.0173 64.5245 52.2735 64.3664 52.5013C64.2082 52.729 63.9836 52.9093 63.6926 53.0422C63.4079 53.1687 63.0789 53.232 62.7056 53.232ZM70.0932 50.347C70.0932 50.5115 70.0838 50.6855 70.0648 50.869H65.9081C65.9398 51.3814 66.1138 51.7832 66.4301 52.0742C66.7528 52.3589 67.1418 52.5013 67.5974 52.5013C67.9706 52.5013 68.2806 52.4159 68.5274 52.245C68.7805 52.0679 68.9576 51.8338 69.0588 51.5428H69.9889C69.8497 52.0426 69.5713 52.4507 69.1537 52.767C68.7362 53.077 68.2174 53.232 67.5974 53.232C67.1039 53.232 66.661 53.1213 66.2688 52.8999C65.8828 52.6784 65.5791 52.3652 65.3577 51.9603C65.1363 51.5491 65.0256 51.0746 65.0256 50.5368C65.0256 49.9991 65.1331 49.5277 65.3482 49.1228C65.5633 48.7179 65.8639 48.4079 66.2498 48.1928C66.642 47.9714 67.0912 47.8606 67.5974 47.8606C68.0908 47.8606 68.5274 47.9682 68.907 48.1833C69.2866 48.3984 69.5776 48.6958 69.7801 49.0754C69.9889 49.4486 70.0932 49.8725 70.0932 50.347ZM69.2012 50.1667C69.2012 49.8377 69.1284 49.5562 68.9829 49.3221C68.8374 49.0817 68.6381 48.9014 68.385 48.7812C68.1383 48.6546 67.8631 48.5914 67.5594 48.5914C67.1229 48.5914 66.7496 48.7306 66.4396 49.0089C66.1359 49.2873 65.9619 49.6732 65.9176 50.1667H69.2012ZM71.6222 46.124V53.1466H70.7587V46.124H71.6222ZM73.4832 46.124V53.1466H72.6196V46.124H73.4832ZM81.6133 53.1466L80.7497 52.2735C80.427 52.6088 80.0822 52.8587 79.7152 53.0232C79.3483 53.1814 78.9339 53.2605 78.4721 53.2605C78.0165 53.2605 77.6116 53.1782 77.2573 53.0137C76.9094 52.8492 76.6373 52.6152 76.4412 52.3115C76.2514 52.0078 76.1565 51.6535 76.1565 51.2486C76.1565 50.7867 76.2862 50.3818 76.5456 50.0339C76.8113 49.6796 77.2004 49.4012 77.7128 49.1987C77.5104 48.9583 77.3649 48.7369 77.2763 48.5344C77.1877 48.332 77.1434 48.1105 77.1434 47.8701C77.1434 47.5918 77.213 47.3419 77.3522 47.1204C77.4977 46.8927 77.7034 46.7155 77.9691 46.589C78.2348 46.4624 78.5416 46.3992 78.8896 46.3992C79.2313 46.3992 79.5286 46.4656 79.7817 46.5985C80.0347 46.7313 80.2245 46.918 80.3511 47.1584C80.4776 47.3925 80.5346 47.655 80.5219 47.9461H79.6583C79.6646 47.6867 79.5919 47.4842 79.44 47.3387C79.2882 47.1869 79.0921 47.1109 78.8517 47.1109C78.5986 47.1109 78.393 47.1837 78.2348 47.3292C78.083 47.4684 78.007 47.6487 78.007 47.8701C78.007 48.0599 78.0577 48.2434 78.1589 48.4206C78.2664 48.5977 78.4436 48.816 78.6903 49.0754L80.6642 51.0588L80.8351 50.7931L81.4804 49.7112H82.4104L81.6322 51.0588C81.5247 51.2486 81.3981 51.4479 81.2526 51.6567L82.7426 53.1466H81.6133ZM78.4721 52.5203C78.8137 52.5203 79.1205 52.4538 79.3926 52.321C79.671 52.1881 79.9335 51.9825 80.1803 51.7041L78.2348 49.7492C77.425 50.0592 77.0201 50.5495 77.0201 51.2201C77.0201 51.5934 77.1529 51.9034 77.4187 52.1501C77.6907 52.3969 78.0418 52.5203 78.4721 52.5203ZM88.6156 53.1466L87.0402 50.4419H85.9963V53.1466H85.1327V46.532H87.268C87.7678 46.532 88.1885 46.6175 88.5302 46.7883C88.8781 46.9591 89.1375 47.19 89.3083 47.481C89.4792 47.7721 89.5646 48.1042 89.5646 48.4775C89.5646 48.933 89.4317 49.3348 89.166 49.6827C88.9066 50.0307 88.5143 50.2616 87.9892 50.3755L89.65 53.1466H88.6156ZM85.9963 49.7492H87.268C87.7362 49.7492 88.0873 49.6353 88.3214 49.4075C88.5555 49.1734 88.6725 48.8634 88.6725 48.4775C88.6725 48.0852 88.5555 47.7816 88.3214 47.5665C88.0936 47.3513 87.7425 47.2438 87.268 47.2438H85.9963V49.7492ZM95.177 50.347C95.177 50.5115 95.1675 50.6855 95.1485 50.869H90.9919C91.0235 51.3814 91.1975 51.7832 91.5138 52.0742C91.8365 52.3589 92.2256 52.5013 92.6811 52.5013C93.0544 52.5013 93.3644 52.4159 93.6111 52.245C93.8642 52.0679 94.0413 51.8338 94.1425 51.5428H95.0726C94.9334 52.0426 94.655 52.4507 94.2374 52.767C93.8199 53.077 93.3011 53.232 92.6811 53.232C92.1876 53.232 91.7447 53.1213 91.3525 52.8999C90.9665 52.6784 90.6629 52.3652 90.4414 51.9603C90.22 51.5491 90.1093 51.0746 90.1093 50.5368C90.1093 49.9991 90.2168 49.5277 90.4319 49.1228C90.6471 48.7179 90.9476 48.4079 91.3335 48.1928C91.7258 47.9714 92.1749 47.8606 92.6811 47.8606C93.1746 47.8606 93.6111 47.9682 93.9907 48.1833C94.3703 48.3984 94.6613 48.6958 94.8638 49.0754C95.0726 49.4486 95.177 49.8725 95.177 50.347ZM94.2849 50.1667C94.2849 49.8377 94.2121 49.5562 94.0666 49.3221C93.9211 49.0817 93.7218 48.9014 93.4688 48.7812C93.222 48.6546 92.9468 48.5914 92.6431 48.5914C92.2066 48.5914 91.8333 48.7306 91.5233 49.0089C91.2196 49.2873 91.0456 49.6732 91.0013 50.1667H94.2849ZM98.3762 47.8512C99.0089 47.8512 99.5213 48.0441 99.9136 48.43C100.306 48.8096 100.502 49.3601 100.502 50.0813V53.1466H99.6479V50.2047C99.6479 49.6859 99.5182 49.2905 99.2588 49.0184C98.9994 48.7401 98.6451 48.6009 98.1959 48.6009C97.7404 48.6009 97.3766 48.7432 97.1045 49.0279C96.8388 49.3126 96.706 49.727 96.706 50.2711V53.1466H95.8424V47.9461H96.706V48.6863C96.8768 48.4206 97.1077 48.2149 97.3987 48.0694C97.6961 47.9239 98.0219 47.8512 98.3762 47.8512ZM102.492 48.6578V51.7231C102.492 51.9762 102.545 52.1565 102.653 52.264C102.76 52.3652 102.947 52.4159 103.213 52.4159H103.849V53.1466H103.07C102.59 53.1466 102.229 53.0359 101.989 52.8144C101.748 52.593 101.628 52.2292 101.628 51.7231V48.6578H100.954V47.9461H101.628V46.6364H102.492V47.9461H103.849V48.6578H102.492Z" fill="white"/>
</g>
</g>
<defs>
<linearGradient id="paint0_linear_463_18542" x1="52.5849" y1="8.58417" x2="70.0199" y2="16.6787" gradientUnits="userSpaceOnUse">
<stop stop-color="#FF417B"/>
<stop offset="0.904531" stop-color="#6900BC"/>
</linearGradient>
<clipPath id="clip0_463_18542">
<rect width="128" height="65" fill="white"/>
</clipPath>
<clipPath id="clip1_463_18542">
<rect width="107.026" height="65" fill="white" transform="translate(10)"/>
</clipPath>
</defs>
</svg>
